# Blender v2.79 (sub 0) OBJ File: ''
# www.blender.org
mtllib knot.mtl
o knot
v -1.430000 1.235001 -13.618834
v -1.430000 1.235001 -14.843835
v -1.430000 1.114930 -14.837935
v -2.830000 1.235001 -13.618834
v -2.830000 1.114930 -14.837935
v -2.830000 1.235001 -14.843835
v -1.430000 0.996015 -14.820296
v -2.830000 0.996015 -14.820296
v -1.430000 0.879402 -14.791086
v -2.830000 0.879402 -14.791086
v -1.430000 0.766214 -14.750587
v -2.830000 0.766214 -14.750587
v -1.430000 0.657540 -14.699188
v -2.830000 0.657540 -14.699188
v -1.430000 0.554427 -14.637384
v -2.830000 0.554427 -14.637384
v -1.430000 0.457869 -14.565772
v -2.830000 0.457869 -14.565772
v -1.430000 0.368795 -14.485041
v -2.830000 0.368795 -14.485041
v -1.430000 0.288063 -14.395967
v -2.830000 0.288063 -14.395967
v -1.430000 0.216451 -14.299408
v -2.830000 0.216451 -14.299408
v -1.430000 0.154648 -14.196296
v -2.830000 0.154648 -14.196296
v -1.430000 0.103249 -14.087622
v -2.830000 0.103249 -14.087622
v -1.430000 0.062749 -13.974433
v -2.830000 0.062749 -13.974433
v -1.430000 0.033539 -13.857821
v -2.830000 0.033539 -13.857821
v -1.430000 0.015900 -13.738905
v -2.830000 0.015900 -13.738905
v -1.430000 0.010001 -13.618834
v -2.830000 0.010001 -13.618834
v -1.430000 0.015900 -13.498763
v -2.830000 0.015900 -13.498763
v -1.430000 0.033539 -13.379848
v -2.830000 0.033539 -13.379848
v -1.430000 0.062749 -13.263235
v -2.830000 0.062749 -13.263235
v -1.430000 0.103249 -13.150047
v -2.830000 0.103249 -13.150047
v -1.430000 0.154648 -13.041373
v -2.830000 0.154648 -13.041373
v -1.430000 0.216451 -12.938261
v -2.830000 0.216451 -12.938261
v -1.430000 0.288064 -12.841702
v -2.830000 0.288063 -12.841702
v -1.430000 0.368796 -12.752628
v -2.830000 0.368796 -12.752628
v -1.430000 0.457870 -12.671896
v -2.830000 0.457870 -12.671896
v -1.430000 0.554428 -12.600284
v -2.830000 0.554428 -12.600284
v -1.430000 0.657541 -12.538481
v -2.830000 0.657541 -12.538481
v -1.430000 0.766215 -12.487082
v -2.830000 0.766215 -12.487082
v -1.430000 0.879403 -12.446583
v -2.830000 0.879403 -12.446583
v -1.430000 0.996016 -12.417373
v -2.830000 0.996016 -12.417373
v -1.430000 1.114931 -12.399733
v -2.830000 1.114931 -12.399733
v -1.430000 1.235002 -12.393834
v -2.830000 1.235002 -12.393834
v -1.430000 1.355073 -12.399734
v -2.830000 1.355073 -12.399734
v -1.430000 1.473988 -12.417373
v -2.830000 1.473988 -12.417373
v -1.430000 1.590601 -12.446583
v -2.830000 1.590601 -12.446583
v -1.430000 1.703789 -12.487082
v -2.830000 1.703789 -12.487082
v -1.430000 1.812463 -12.538482
v -2.830000 1.812463 -12.538482
v -1.430000 1.915576 -12.600285
v -2.830000 1.915576 -12.600285
v -1.430000 2.012133 -12.671898
v -2.830000 2.012133 -12.671898
v -1.430000 2.101207 -12.752629
v -2.830000 2.101207 -12.752629
v -1.430000 2.181939 -12.841703
v -2.830000 2.181938 -12.841703
v -1.430000 2.253551 -12.938262
v -2.830000 2.253551 -12.938262
v -1.430000 2.315355 -13.041374
v -2.830000 2.315355 -13.041374
v -1.430000 2.366754 -13.150047
v -2.830000 2.366754 -13.150047
v -1.430000 2.407253 -13.263236
v -2.830000 2.407253 -13.263236
v -1.430000 2.436462 -13.379848
v -2.830000 2.436462 -13.379848
v -1.430000 2.454102 -13.498763
v -2.830000 2.454102 -13.498763
v -1.430000 2.460001 -13.618834
v -2.830000 2.460001 -13.618834
v -1.430000 2.454103 -13.738905
v -2.830000 2.454103 -13.738905
v -1.430000 2.436463 -13.857820
v -2.830000 2.436463 -13.857820
v -1.430000 2.407253 -13.974432
v -2.830000 2.407253 -13.974432
v -1.430000 2.366754 -14.087621
v -2.830000 2.366754 -14.087621
v -1.430000 2.315355 -14.196294
v -2.830000 2.315355 -14.196294
v -1.430000 2.253552 -14.299406
v -2.830000 2.253552 -14.299406
v -1.430000 2.181940 -14.395965
v -2.830000 2.181940 -14.395965
v -1.430000 2.101209 -14.485039
v -2.830000 2.101209 -14.485039
v -1.430000 2.012135 -14.565770
v -2.830000 2.012135 -14.565770
v -1.430000 1.915577 -14.637383
v -2.830000 1.915577 -14.637383
v -1.430000 1.812465 -14.699186
v -2.830000 1.812465 -14.699186
v -1.430000 1.703791 -14.750586
v -2.830000 1.703791 -14.750586
v -1.430000 1.590603 -14.791085
v -2.830000 1.590603 -14.791085
v -1.430000 1.473991 -14.820295
v -2.830000 1.473990 -14.820295
v -1.430000 1.355076 -14.837935
v -2.830000 1.355076 -14.837935
vn 1.0000 0.0000 0.0000
vn -1.0000 -0.0000 0.0000
vn 0.0000 -0.0491 -0.9988
vn 0.0000 -0.1467 -0.9892
vn 0.0000 -0.2430 -0.9700
vn 0.0000 -0.3369 -0.9415
vn 0.0000 -0.4276 -0.9040
vn 0.0000 -0.5141 -0.8577
vn 0.0000 -0.5957 -0.8032
vn 0.0000 -0.6716 -0.7410
vn 0.0000 -0.7410 -0.6716
vn 0.0000 -0.8032 -0.5957
vn 0.0000 -0.8577 -0.5141
vn 0.0000 -0.9040 -0.4276
vn 0.0000 -0.9415 -0.3369
vn 0.0000 -0.9700 -0.2430
vn 0.0000 -0.9892 -0.1467
vn 0.0000 -0.9988 -0.0491
vn 0.0000 -0.9988 0.0491
vn 0.0000 -0.9892 0.1467
vn 0.0000 -0.9700 0.2430
vn 0.0000 -0.9415 0.3369
vn 0.0000 -0.9040 0.4276
vn 0.0000 -0.8577 0.5141
vn 0.0000 -0.8032 0.5957
vn 0.0000 -0.7409 0.6716
vn 0.0000 -0.7410 0.6716
vn 0.0000 -0.6716 0.7409
vn 0.0000 -0.5957 0.8032
vn 0.0000 -0.5141 0.8577
vn 0.0000 -0.4276 0.9040
vn 0.0000 -0.3369 0.9415
vn 0.0000 -0.2430 0.9700
vn 0.0000 -0.1467 0.9892
vn 0.0000 -0.0491 0.9988
vn 0.0000 0.0491 0.9988
vn 0.0000 0.1467 0.9892
vn 0.0000 0.2430 0.9700
vn 0.0000 0.3369 0.9415
vn 0.0000 0.4276 0.9040
vn 0.0000 0.5141 0.8577
vn 0.0000 0.5957 0.8032
vn 0.0000 0.6716 0.7410
vn 0.0000 0.7410 0.6716
vn -0.0000 0.8032 0.5957
vn 0.0000 0.8577 0.5141
vn 0.0000 0.9040 0.4276
vn 0.0000 0.9415 0.3369
vn 0.0000 0.9700 0.2430
vn 0.0000 0.9892 0.1467
vn 0.0000 0.9988 0.0491
vn 0.0000 0.9988 -0.0491
vn 0.0000 0.9892 -0.1467
vn 0.0000 0.9700 -0.2430
vn 0.0000 0.9415 -0.3369
vn 0.0000 0.9040 -0.4276
vn 0.0000 0.8577 -0.5141
vn 0.0000 0.8032 -0.5957
vn 0.0000 0.7410 -0.6716
vn 0.0000 0.6716 -0.7410
vn 0.0000 0.5957 -0.8032
vn 0.0000 0.5141 -0.8577
vn 0.0000 0.4276 -0.9040
vn 0.0000 0.3369 -0.9415
vn 0.0000 0.2430 -0.9700
vn 0.0000 0.1467 -0.9892
vn 0.0000 0.0491 -0.9988
usemtl None
s off
f 1//1 3//1 2//1
f 4//2 6//2 5//2
f 2//3 5//3 6//3
f 2//3 3//3 5//3
f 1//1 7//1 3//1
f 4//2 5//2 8//2
f 3//4 8//4 5//4
f 3//4 7//4 8//4
f 1//1 9//1 7//1
f 4//2 8//2 10//2
f 7//5 10//5 8//5
f 7//5 9//5 10//5
f 1//1 11//1 9//1
f 4//2 10//2 12//2
f 9//6 12//6 10//6
f 9//6 11//6 12//6
f 1//1 13//1 11//1
f 4//2 12//2 14//2
f 11//7 14//7 12//7
f 11//7 13//7 14//7
f 1//1 15//1 13//1
f 4//2 14//2 16//2
f 13//8 16//8 14//8
f 13//8 15//8 16//8
f 1//1 17//1 15//1
f 4//2 16//2 18//2
f 15//9 18//9 16//9
f 15//9 17//9 18//9
f 1//1 19//1 17//1
f 4//2 18//2 20//2
f 17//10 20//10 18//10
f 17//10 19//10 20//10
f 1//1 21//1 19//1
f 4//2 20//2 22//2
f 19//11 22//11 20//11
f 19//11 21//11 22//11
f 1//1 23//1 21//1
f 4//2 22//2 24//2
f 21//12 24//12 22//12
f 21//12 23//12 24//12
f 1//1 25//1 23//1
f 4//2 24//2 26//2
f 23//13 26//13 24//13
f 23//13 25//13 26//13
f 1//1 27//1 25//1
f 4//2 26//2 28//2
f 25//14 28//14 26//14
f 25//14 27//14 28//14
f 1//1 29//1 27//1
f 4//2 28//2 30//2
f 27//15 30//15 28//15
f 27//15 29//15 30//15
f 1//1 31//1 29//1
f 4//2 30//2 32//2
f 29//16 32//16 30//16
f 29//16 31//16 32//16
f 1//1 33//1 31//1
f 4//2 32//2 34//2
f 31//17 34//17 32//17
f 31//17 33//17 34//17
f 1//1 35//1 33//1
f 4//2 34//2 36//2
f 33//18 36//18 34//18
f 33//18 35//18 36//18
f 1//1 37//1 35//1
f 4//2 36//2 38//2
f 35//19 38//19 36//19
f 35//19 37//19 38//19
f 1//1 39//1 37//1
f 4//2 38//2 40//2
f 37//20 40//20 38//20
f 37//20 39//20 40//20
f 1//1 41//1 39//1
f 4//2 40//2 42//2
f 39//21 42//21 40//21
f 39//21 41//21 42//21
f 1//1 43//1 41//1
f 4//2 42//2 44//2
f 41//22 44//22 42//22
f 41//22 43//22 44//22
f 1//1 45//1 43//1
f 4//2 44//2 46//2
f 43//23 46//23 44//23
f 43//23 45//23 46//23
f 1//1 47//1 45//1
f 4//2 46//2 48//2
f 45//24 48//24 46//24
f 45//24 47//24 48//24
f 1//1 49//1 47//1
f 4//2 48//2 50//2
f 47//25 50//25 48//25
f 47//25 49//25 50//25
f 1//1 51//1 49//1
f 4//2 50//2 52//2
f 49//26 52//26 50//26
f 49//27 51//27 52//27
f 1//1 53//1 51//1
f 4//2 52//2 54//2
f 51//28 54//28 52//28
f 51//28 53//28 54//28
f 1//1 55//1 53//1
f 4//2 54//2 56//2
f 53//29 56//29 54//29
f 53//29 55//29 56//29
f 1//1 57//1 55//1
f 4//2 56//2 58//2
f 55//30 58//30 56//30
f 55//30 57//30 58//30
f 1//1 59//1 57//1
f 4//2 58//2 60//2
f 57//31 60//31 58//31
f 57//31 59//31 60//31
f 1//1 61//1 59//1
f 4//2 60//2 62//2
f 59//32 62//32 60//32
f 59//32 61//32 62//32
f 1//1 63//1 61//1
f 4//2 62//2 64//2
f 61//33 64//33 62//33
f 61//33 63//33 64//33
f 1//1 65//1 63//1
f 4//2 64//2 66//2
f 63//34 66//34 64//34
f 63//34 65//34 66//34
f 1//1 67//1 65//1
f 4//2 66//2 68//2
f 65//35 68//35 66//35
f 65//35 67//35 68//35
f 1//1 69//1 67//1
f 4//2 68//2 70//2
f 67//36 70//36 68//36
f 67//36 69//36 70//36
f 1//1 71//1 69//1
f 4//2 70//2 72//2
f 69//37 72//37 70//37
f 69//37 71//37 72//37
f 1//1 73//1 71//1
f 4//2 72//2 74//2
f 71//38 74//38 72//38
f 71//38 73//38 74//38
f 1//1 75//1 73//1
f 4//2 74//2 76//2
f 73//39 76//39 74//39
f 73//39 75//39 76//39
f 1//1 77//1 75//1
f 4//2 76//2 78//2
f 75//40 78//40 76//40
f 75//40 77//40 78//40
f 1//1 79//1 77//1
f 4//2 78//2 80//2
f 77//41 80//41 78//41
f 77//41 79//41 80//41
f 1//1 81//1 79//1
f 4//2 80//2 82//2
f 79//42 82//42 80//42
f 79//42 81//42 82//42
f 1//1 83//1 81//1
f 4//2 82//2 84//2
f 81//43 84//43 82//43
f 81//43 83//43 84//43
f 1//1 85//1 83//1
f 4//2 84//2 86//2
f 83//44 86//44 84//44
f 83//44 85//44 86//44
f 1//1 87//1 85//1
f 4//2 86//2 88//2
f 85//45 88//45 86//45
f 85//45 87//45 88//45
f 1//1 89//1 87//1
f 4//2 88//2 90//2
f 87//46 90//46 88//46
f 87//46 89//46 90//46
f 1//1 91//1 89//1
f 4//2 90//2 92//2
f 89//47 92//47 90//47
f 89//47 91//47 92//47
f 1//1 93//1 91//1
f 4//2 92//2 94//2
f 91//48 94//48 92//48
f 91//48 93//48 94//48
f 1//1 95//1 93//1
f 4//2 94//2 96//2
f 93//49 96//49 94//49
f 93//49 95//49 96//49
f 1//1 97//1 95//1
f 4//2 96//2 98//2
f 95//50 98//50 96//50
f 95//50 97//50 98//50
f 1//1 99//1 97//1
f 4//2 98//2 100//2
f 97//51 100//51 98//51
f 97//51 99//51 100//51
f 1//1 101//1 99//1
f 4//2 100//2 102//2
f 99//52 102//52 100//52
f 99//52 101//52 102//52
f 1//1 103//1 101//1
f 4//2 102//2 104//2
f 101//53 104//53 102//53
f 101//53 103//53 104//53
f 1//1 105//1 103//1
f 4//2 104//2 106//2
f 103//54 106//54 104//54
f 103//54 105//54 106//54
f 1//1 107//1 105//1
f 4//2 106//2 108//2
f 105//55 108//55 106//55
f 105//55 107//55 108//55
f 1//1 109//1 107//1
f 4//2 108//2 110//2
f 107//56 110//56 108//56
f 107//56 109//56 110//56
f 1//1 111//1 109//1
f 4//2 110//2 112//2
f 109//57 112//57 110//57
f 109//57 111//57 112//57
f 1//1 113//1 111//1
f 4//2 112//2 114//2
f 111//58 114//58 112//58
f 111//58 113//58 114//58
f 1//1 115//1 113//1
f 4//2 114//2 116//2
f 113//59 116//59 114//59
f 113//59 115//59 116//59
f 1//1 117//1 115//1
f 4//2 116//2 118//2
f 115//60 118//60 116//60
f 115//60 117//60 118//60
f 1//1 119//1 117//1
f 4//2 118//2 120//2
f 117//61 120//61 118//61
f 117//61 119//61 120//61
f 1//1 121//1 119//1
f 4//2 120//2 122//2
f 119//62 122//62 120//62
f 119//62 121//62 122//62
f 1//1 123//1 121//1
f 4//2 122//2 124//2
f 121//63 124//63 122//63
f 121//63 123//63 124//63
f 1//1 125//1 123//1
f 4//2 124//2 126//2
f 123//64 126//64 124//64
f 123//64 125//64 126//64
f 1//1 127//1 125//1
f 4//2 126//2 128//2
f 125//65 128//65 126//65
f 125//65 127//65 128//65
f 1//1 129//1 127//1
f 4//2 128//2 130//2
f 127//66 130//66 128//66
f 127//66 129//66 130//66
f 1//1 2//1 129//1
f 4//2 130//2 6//2
f 129//67 6//67 130//67
f 129//67 2//67 6//67
