ply
format ascii 1.0
element vertex 486
property double x
property double y
property double z
element face 968
property list uchar int vertex_indices
end_header
65.105796999999995 -4.0703069999999997 4.7714400000000001 
64.786308000000005 -4.9481080000000004 4.6897260000000003 
21.598040000000001 11.765229 4.7714429999999997 
21.278549000000002 10.887428999999999 4.68973 
29.300159000000001 0.088819999999999996 17.04776 
28.443750000000001 0.312197 16.737988999999999 
38.649509000000002 25.775977999999999 9.7231909999999999 
37.793109999999999 25.999357 9.4134189999999993 
64.495643999999999 -5.7467059999999996 4.2934469999999996 
20.987881000000002 10.088829 4.2934489999999998 
27.715388999999998 0.41128799999999999 16.155799999999999 
37.064751000000001 26.098448000000001 8.8312220000000003 
64.268867 -6.369783 3.6303990000000002 
20.761101 9.4657490000000006 3.6304020000000001 
27.202921 0.37414599999999998 15.3714 
36.552280000000003 26.061308 8.0468240000000009 
64.133324000000002 -6.7421860000000002 2.7805559999999998 
20.625548999999999 9.0933480000000007 2.7805599999999999 
26.968149 0.20524800000000001 14.47941 
36.317501 25.892408 7.1548350000000003 
64.105369999999994 -6.818994 1.846422 
20.597601000000001 9.0165400000000009 1.8464240000000001 
27.039400000000001 -0.075035000000000004 13.58741 
36.388759999999998 25.612127000000001 6.2628409999999999 
64.188370000000006 -6.5909399999999998 0.94066700000000003 
20.680599000000001 9.2445920000000008 0.94067000000000001 
27.408079000000001 -0.432896 12.80301 
36.757449999999999 25.254259000000001 5.4784319999999997 
64.372321999999997 -6.0855410000000001 0.172542 
20.864550000000001 9.7499900000000004 0.172545 
28.029720000000001 -0.82516900000000004 12.220789999999999 
37.379089 24.861989999999999 4.8962199999999996 
64.635033000000007 -5.3637449999999998 -0.36531000000000002 
21.12726 10.47179 -0.36530600000000002 
28.829339999999998 -1.2045429999999999 11.911 
38.178699000000002 24.482620000000001 4.5864269999999996 
64.944817 -4.5126189999999999 -0.608012 
21.437049999999999 11.32292 -0.60800900000000002 
29.710501000000001 -1.5252589999999999 11.91099 
39.05986 24.161899999999999 4.5864200000000004 
65.264313000000001 -3.6348199999999999 -0.52629300000000001 
21.756540000000001 12.200710000000001 -0.52628900000000001 
30.5669 -1.748631 12.22077 
39.916260000000001 23.93853 4.8962000000000003 
65.554976999999994 -2.8362219999999998 -0.13000600000000001 
22.047211000000001 12.999309999999999 -0.13000400000000001 
31.295259000000001 -1.8477209999999999 12.80298 
40.644618999999999 23.839438999999999 5.478402 
65.781754000000006 -2.2131500000000002 0.53304700000000005 
22.273990999999999 13.62238 0.53305000000000002 
31.807729999999999 -1.8105739999999999 13.58738 
41.157088999999999 23.876577000000001 6.2628029999999999 
65.917297000000005 -1.8407530000000001 1.3828929999999999 
22.409531000000001 13.99478 1.382895 
32.042487999999999 -1.6416740000000001 14.479369999999999 
41.391849999999998 24.045479 7.1547929999999997 
65.945250999999999 -1.763952 2.3170269999999999 
22.437480999999998 14.071580000000001 2.3170289999999998 
31.971229999999998 -1.3613900000000001 15.371359999999999 
41.320591 24.325768 8.0467849999999999 
65.862244000000004 -1.992008 3.2227790000000001 
22.354481 13.843519000000001 3.222782 
31.602539 -1.0035289999999999 16.155768999999999 
40.951900000000002 24.683627999999999 8.8311910000000005 
65.678291000000002 -2.4974180000000001 3.990901 
22.170521000000001 13.338108999999999 3.990904 
30.980889999999999 -0.61125499999999999 16.737970000000001 
40.330249999999999 25.075897000000001 9.4133980000000008 
65.415581000000003 -3.2192159999999999 4.5287480000000002 
21.907810000000001 12.616319000000001 4.5287499999999996 
30.181270999999999 -0.231881 17.04776 
39.530628 25.455278 9.7231839999999998 
19.471530999999999 12.329439000000001 4.8673260000000003 
19.307690000000001 11.41011 4.7820229999999997 
17.291321 12.501789 5.152183 
17.287991000000002 11.569019000000001 5.0561879999999997 
15.140829999999999 12.276099 5.6177039999999998 
15.297779999999999 11.358618999999999 5.5041710000000004 
13.10262 11.661659 6.2503299999999999 
13.414429999999999 10.788069 6.1128460000000002 
11.25535 10.682959 7.0316650000000003 
11.711399999999999 9.8808760000000007 6.8644449999999999 
9.6707610000000006 9.3788470000000004 7.939057 
10.25531 8.6739949999999997 7.7371530000000002 
8.4108689999999999 7.8011059999999999 8.9463209999999993 
9.1033819999999999 7.2164130000000002 8.7058169999999997 
7.5255020000000004 6.0125590000000004 10.024571 
8.3010979999999996 5.5672119999999996 9.7427969999999995 
7.050262 4.0846390000000001 11.143181 
7.8804270000000001 3.7932250000000001 10.818851 
7.0050230000000004 2.0946039999999999 12.270759999999999 
7.8584969999999998 1.9663520000000001 11.90413 
7.3930360000000004 0.122479 13.376200000000001 
8.2369020000000006 0.16066 12.96912 
8.2007220000000007 -1.752159 14.42967 
9.0016309999999997 -1.550616 13.98559 
9.3981349999999999 -3.4534020000000001 15.403579000000001 
10.12363 -3.0980439999999998 14.927489 
10.940110000000001 -4.9120860000000004 16.273451000000001 
11.559990000000001 -4.4188099999999997 15.771739 
12.76806 -6.0686020000000003 17.018639 
13.25572 -5.4592330000000002 16.498889999999999 
14.812239999999999 -6.8753099999999998 17.622907999999999 
15.145949999999999 -6.1768910000000004 17.093637000000001 
16.994610000000002 -7.2984419999999997 18.074867000000001 
17.158608999999998 -6.5422560000000001 17.545189000000001 
19.231871000000002 -7.3194129999999999 18.368176999999999 
19.217251000000001 -6.5397600000000002 17.847398999999999 
21.438770000000002 -6.9355099999999998 18.501557999999999 
21.244109999999999 -6.1682709999999998 17.998837999999999 
23.531400999999999 -6.1599139999999997 18.478659 
23.16301 -5.440976 18.002541000000001 
25.430409999999998 -5.0211009999999998 18.307739000000002 
24.902280999999999 -4.384709 17.865749000000001 
27.063959000000001 -3.5616500000000002 18.001190000000001 
26.397248999999999 -3.0387749999999998 17.59947 
28.370331 -1.8365670000000001 17.574921 
27.592500999999999 -1.453392 17.217929999999999 
19.131879999999999 10.580228999999999 4.383813 
17.230920999999999 10.727328999999999 4.6521720000000002 
15.36032 10.525129 5.0904449999999999 
13.59427 9.9829439999999998 5.6854899999999997 
12.00287 9.1240360000000003 6.419581 
10.6493 7.9846180000000002 7.2710520000000001 
9.5873010000000001 6.6123599999999998 8.2150449999999999 
8.8589599999999997 5.0644030000000004 9.2243820000000003 
8.4930570000000003 3.404992 10.270481 
8.5039040000000004 1.7027890000000001 11.32433 
8.8907959999999999 0.027984999999999999 12.357430000000001 
9.6381029999999992 -1.5506359999999999 13.34272 
10.716010000000001 -2.9685809999999999 14.255428999999999 
12.08187 -4.1683260000000004 15.073829 
13.682090000000001 -5.101648 15.779799000000001 
15.45452 -5.7315189999999996 16.359328999999999 
17.331140999999999 -6.0334149999999998 16.802738000000002 
19.240919000000002 -5.9960370000000003 17.104756999999999 
21.112719999999999 -5.6213800000000003 17.26446 
22.877960000000002 -4.9242330000000001 17.284949999999998 
24.473061000000001 -3.9311630000000002 17.173031000000002 
25.8414 -2.6791550000000002 16.938690000000001 
26.934940000000001 -1.2140150000000001 16.594640999999999 
18.965199999999999 9.9393159999999998 3.720777 
17.12706 10.075889 3.9890310000000002 
15.321999999999999 9.8711160000000007 4.4266719999999999 
13.62382 9.3353199999999994 5.0199680000000004 
12.10168 8.4929790000000001 5.7505050000000004 
10.817159999999999 7.3814719999999996 6.595961 
9.8217320000000008 6.0493620000000004 7.530945 
9.1547020000000003 4.5541830000000001 8.5279659999999993 
8.8417169999999992 2.959883 9.5583960000000001 
8.8938129999999997 1.3340209999999999 10.59346 
9.3071330000000003 -0.25517099999999998 11.60521 
10.06325 -1.7417320000000001 12.567410000000001 
11.130190000000001 -3.064794 13.456339 
12.463979999999999 -4.1711429999999998 14.251529 
14.010820000000001 -5.0173649999999999 14.936239 
15.709619999999999 -5.5714920000000001 15.497878999999999 
17.494841000000001 -5.8139849999999997 15.928108999999999 
19.299399999999999 -5.7380500000000003 16.22287 
21.057480000000002 -5.3492740000000003 16.382090000000002 
22.706980000000001 -4.6646840000000003 16.409389000000001 
24.191490000000002 -3.7113369999999999 16.311520000000002 
25.461728999999998 -2.5247009999999999 16.097909999999999 
26.47645 -1.1470229999999999 15.780110000000001 
18.827749000000001 9.5646629999999995 2.8728880000000001 
16.98893 9.6932700000000001 3.1467489999999998 
15.187430000000001 9.4754670000000001 3.5929160000000002 
13.49953 8.9233209999999996 4.1965510000000004 
11.99593 8.0638179999999995 4.9379160000000004 
10.73865 6.9373019999999999 5.7932990000000002 
9.778397 5.5953280000000003 6.7360290000000003 
9.1526530000000008 4.0980939999999997 7.7375470000000002 
8.8843479999999992 2.511584 8.7684820000000006 
8.9811940000000003 0.90452600000000005 9.7996850000000002 
9.4356939999999998 -0.65465600000000002 10.8032 
10.2258 -2.1008550000000001 11.753170000000001 
11.3162 -3.3750789999999999 12.626599000000001 
12.66023 -4.4269189999999998 13.404029 
14.202249999999999 -5.2165470000000003 14.069969 
15.88048 -5.7161150000000003 14.613189 
17.629971000000001 -5.9104320000000001 15.026799 
19.385639000000001 -5.7969150000000003 15.308089000000001 
21.085059999999999 -5.3847719999999999 15.458169 
22.670691000000001 -4.6936359999999997 15.481458999999999 
24.091529999999999 -3.751741 15.385149 
25.304029 -2.5940430000000001 15.17854 
26.272328999999999 -1.260499 14.87257 
18.73612 9.5014590000000005 1.942415 
16.833200000000001 9.6256170000000001 2.226918 
14.972849999999999 9.3859089999999998 2.6897389999999999 
13.23638 8.7966370000000005 3.314559 
11.698370000000001 7.8883190000000001 4.0798249999999996 
10.42323 6.7056829999999996 4.959886 
9.4625229999999991 5.3050199999999998 5.9261759999999999 
8.8530619999999995 3.75115 6.9484620000000001 
8.615812 2.1141670000000001 7.9960190000000004 
8.7555080000000007 0.46611000000000002 9.0387350000000009 
9.2609779999999997 -1.122285 10.048120000000001 
10.10614 -2.584689 10.99821 
11.251609999999999 -3.862009 11.866289 
12.64695 -4.9048069999999999 12.633559 
14.2333 -5.6751709999999997 13.28546 
15.946490000000001 -6.1479400000000002 13.811968999999999 
17.720220999999999 -6.3111249999999997 14.207528999999999 
19.489241 -6.1655309999999997 14.470769000000001 
21.192129000000001 -5.7235959999999997 14.604119000000001 
22.77346 -5.0075960000000004 14.613089 
24.18524 -4.0475009999999996 14.505639 
25.387309999999999 -2.8788140000000002 14.29147 
26.347190999999999 -1.5407550000000001 13.981490000000001 
18.701349 9.7573340000000002 1.0415840000000001 
16.678640000000001 9.8810889999999993 1.340484 
14.704140000000001 9.6132399999999993 1.826079 
12.86612 8.9705469999999998 2.4803709999999999 
11.24489 7.9876469999999999 3.2797339999999999 
9.9089530000000003 6.7145510000000002 4.1962409999999997 
8.9122079999999997 5.2134539999999996 5.1990679999999996 
8.2920599999999993 3.5551970000000002 6.2558870000000004 
8.0684970000000007 1.8155650000000001 7.3341760000000003 
8.2439769999999992 0.071650000000000005 8.4023990000000008 
8.8040540000000007 -1.6016539999999999 9.4310569999999991 
9.7186979999999998 -3.1348750000000001 10.393589 
10.94421 -4.4668549999999998 11.267118999999999 
12.425739999999999 -5.5471649999999997 12.033029000000001 
14.10022 -6.3379209999999997 12.677349 
15.89969 -6.8148860000000004 13.190859 
17.754708999999998 -6.9677309999999997 13.569089 
19.597691000000001 -6.7994399999999997 13.811899 
21.365760999999999 -6.3248730000000002 13.922959000000001 
23.002911000000001 -5.5686929999999997 13.909008999999999 
24.461309 -4.562945 13.779069 
25.701530000000002 -3.3446709999999999 13.543699 
26.692011000000001 -1.953989 13.21434 
18.727650000000001 10.30142 0.279055 
16.543908999999999 10.428879999999999 0.59436599999999995 
14.41371 10.130039999999999 1.106107 
12.43341 9.4240739999999992 1.794605 
10.69018 8.3498239999999999 2.6341420000000002 
9.2578429999999994 6.9628370000000004 3.5944720000000001 
8.1938300000000002 5.3316749999999997 4.642404 
7.5373169999999998 3.5338669999999999 5.7433550000000002 
7.3084199999999999 1.651796 6.8627820000000002 
7.5082979999999999 -0.23127500000000001 7.967428 
8.1200379999999992 -2.034945 9.0264319999999998 
9.1102139999999991 -3.6850520000000002 10.012238999999999 
10.43108 -5.1166609999999997 10.901349 
12.02328 -6.2765149999999998 11.674889 
13.81906 -7.1248560000000003 12.318968999999999 
15.74573 -7.6365040000000004 12.824780000000001 
17.729289999999999 -7.8010549999999999 13.188509 
19.697941 -7.6221819999999996 13.410949 
21.58502 -7.1160839999999999 13.496848999999999 
23.33135 -6.3092560000000004 13.454139 
24.88645 -5.2359010000000001 13.293089 
26.20879 -3.9354209999999998 13.025418999999999 
27.265208999999999 -2.4503560000000002 12.66367 
18.811831000000002 11.06809 -0.25320500000000001 
16.445239999999998 11.202909999999999 0.078555 
14.13659 10.87397 0.61665999999999999 
11.99043 10.10252 1.339974 
10.101150000000001 8.9311640000000008 2.2209219999999998 
8.5484380000000009 7.4205920000000001 3.2271619999999999 
7.3940380000000001 5.6454219999999999 4.3233259999999998 
6.6798640000000002 3.6897340000000001 5.4726869999999996 
6.4272549999999997 1.642614 6.6386919999999998 
6.6372070000000001 -0.40612700000000002 7.7862850000000003 
7.2914289999999999 -2.3698950000000001 8.8830480000000005 
8.3540779999999994 -4.1688619999999998 9.9001490000000008 
9.7741019999999992 -5.733053 10.813098999999999 
11.48812 -7.0048859999999999 11.602328999999999 
13.42374 -7.9410619999999996 12.253549 
15.503170000000001 -8.5136990000000008 12.757868999999999 
17.647020000000001 -8.7105859999999993 13.111689 
19.777861000000001 -8.5345209999999998 13.316279 
21.823468999999999 -8.0017949999999995 13.377179 
23.719179 -7.1399559999999997 13.303359 
25.409379999999999 -5.9852040000000004 13.106309 
26.847909999999999 -4.5798100000000002 12.799139 
27.997629 -2.969989 12.395879000000001 
18.943740999999999 11.964869999999999 -0.49099399999999999 
16.394549999999999 12.109819999999999 -0.144734 
13.9062 11.75531 0.41677500000000001 
11.59061 10.924049999999999 1.1713119999999999 
9.5488529999999994 9.6615479999999998 2.089909 
7.8663020000000001 8.0326090000000008 3.138614 
6.6092959999999996 6.116854 4.2803209999999998 
5.8231229999999998 4.0039990000000003 5.4765309999999996 
5.5312840000000003 1.789123 6.6889390000000004 
5.7357690000000003 -0.43181799999999998 7.8808199999999999 
6.4181720000000002 -2.566106 9.0182029999999997 
7.5414919999999999 -4.5279489999999996 10.070849000000001 
9.0525260000000003 -6.2416830000000001 11.013019 
10.8848 -7.644425 11.824109 
12.961930000000001 -8.6880900000000008 12.488999 
15.201269999999999 -9.3406660000000006 12.998219000000001 
17.517810999999998 -9.5866190000000007 13.347887999999999 
19.827840999999999 -9.4264150000000004 13.539308999999999 
22.052340000000001 -8.8751750000000005 13.578388 
24.119599999999998 -7.9606000000000003 13.474849000000001 
25.967020000000002 -6.7204730000000001 13.241249 
27.541809000000001 -5.2001179999999998 12.892149 
28.800940000000001 -3.4502130000000002 12.443279 
19.107491 12.883609999999999 -0.40563399999999999 
16.397939999999998 13.040229999999999 -0.048568 
13.75034 12.667759999999999 0.53056099999999995 
11.28219 11.789569999999999 1.308964 
9.0998950000000001 10.45288 2.2569089999999998 
7.2937089999999998 8.7250619999999994 3.3395090000000001 
5.9342579999999998 6.6891080000000001 4.5185760000000004 
5.0704320000000003 4.4387559999999997 5.7544199999999996 
4.7285769999999996 2.0736560000000002 7.0074569999999996 
4.9127130000000001 -0.30524600000000002 8.23963 
5.6055960000000002 -2.5999110000000001 9.4155920000000002 
6.7704649999999997 -4.719004 10.503729 
8.3533840000000001 -6.5812030000000004 11.476989 
10.286099999999999 -8.1179939999999995 12.313469 
12.48934 -9.2758400000000005 12.996888 
14.87645 -10.017662 13.516818000000001 
17.35726 -10.323492 13.868608 
19.841840999999999 -10.190291999999999 14.053127999999999 
22.244029999999999 -9.6308830000000007 14.076207999999999 
24.484328999999999 -8.6722059999999992 13.947908999999999 
26.492108999999999 -7.3530239999999996 13.681639000000001 
28.206779000000001 -5.7215239999999996 13.293239 
29.578251000000002 -3.8331019999999998 12.800148999999999 
19.283300000000001 13.713480000000001 -0.0074190000000000002 
16.455009 13.88191 0.35545399999999999 
13.687799999999999 13.501250000000001 0.94429300000000005 
11.102359999999999 12.5947 1.736326 
8.8084340000000001 11.209720000000001 2.701778 
6.8997250000000001 9.4144380000000005 3.8056139999999998 
5.4503430000000002 7.2931609999999996 5.0093519999999998 
4.512575 4.941567 6.2728390000000003 
4.1159509999999999 2.4618890000000002 7.5558329999999998 
4.2673100000000002 -0.041681000000000003 8.8194359999999996 
4.9517069999999999 -2.4672339999999999 10.027290000000001 
6.1339949999999996 -4.718979 11.146609 
7.7610010000000003 -6.710661 12.149049 
9.7642209999999992 -8.3684740000000009 13.011379 
12.06297 -9.6334169999999997 13.715987999999999 
14.567880000000001 -10.463022 14.251137999999999 
17.184730999999999 -10.832322 14.611068 
19.818180000000002 -10.734003 14.795778 
22.375409999999999 -10.177773 14.810587999999999 
24.769380999999999 -9.1889450000000004 14.665497999999999 
26.921329 -7.8065629999999997 14.374369 
28.762609000000001 -6.0811409999999997 13.954029 
30.235809 -4.072476 13.423439 
19.44998 14.35439 0.65562299999999996 
16.558869999999999 14.53335 1.0185999999999999 
13.72612 14.15526 1.6080700000000001 
11.07281 13.24231 2.401853 
8.7096199999999993 11.840769 3.3708589999999998 
6.7318689999999997 10.017579 4.4807100000000002 
5.2159180000000003 7.8561560000000004 5.6934579999999997 
4.2168390000000002 5.4517860000000002 6.9692569999999998 
3.767299 2.907 8.2679220000000004 
3.877408 0.32708799999999999 9.5503060000000009 
4.5353770000000004 -2.184075 10.779500000000001 
5.7088510000000001 -4.5278790000000004 11.921919000000001 
7.3468280000000004 -6.6144429999999996 12.948138999999999 
9.3821150000000006 -8.3656520000000008 13.833679 
11.73424 -9.7176950000000009 14.559547999999999 
14.31279 -10.623042999999999 15.112588000000001 
17.02103 -11.051753 15.485697999999999 
19.759701 -10.991993000000001 15.677668000000001 
22.430638999999999 -10.449873 15.692958000000001 
24.940359000000001 -9.4484879999999993 15.541067999999999 
27.20289 -8.0263869999999997 15.235879000000001 
29.142281000000001 -6.235589 14.794809000000001 
30.694289999999999 -4.1394650000000004 14.237978999999999 
19.587429 14.729039999999999 1.5035130000000001 
16.697001 14.91596 1.8608849999999999 
13.86069 14.550890000000001 2.4418280000000001 
11.19711 13.654309 3.2252710000000002 
8.8153740000000003 12.269928999999999 4.1834480000000003 
6.8103879999999997 10.461748999999999 5.283372 
5.2592590000000001 8.3101870000000009 6.4883740000000003 
4.2188939999999997 5.9078720000000002 7.7596759999999998 
3.7246730000000001 3.355299 9.0578369999999993 
3.7900330000000002 0.75658300000000001 10.34409 
4.4068199999999997 -1.7845880000000001 11.581519999999999 
5.5463110000000002 -4.1687539999999998 12.736159000000001 
7.1608219999999996 -6.3041549999999997 13.777879 
9.1858690000000003 -8.1098710000000001 14.681179 
11.542809999999999 -9.5185080000000006 15.425818 
14.14193 -10.478413 15.997278 
16.885909999999999 -10.955292999999999 16.386997000000001 
19.673459999999999 -10.933113000000001 16.592447 
22.403061000000001 -10.414363 16.616887999999999 
24.976641000000001 -9.41953 16.468988 
27.302851 -7.9859770000000001 16.162248999999999 
29.299980000000001 -6.1662429999999997 15.714179 
30.898410999999999 -4.0259850000000004 15.145519 
19.67905 14.79223 2.4339879999999998 
16.852739 14.983610000000001 2.780716 
14.07527 14.640449 3.345005 
11.46026 13.780989 4.1072639999999998 
9.11294 12.445418999999999 5.0415380000000001 
7.1258119999999998 10.693358999999999 6.116784 
5.5751390000000001 8.6004909999999999 7.2982250000000004 
4.5184930000000003 6.2548139999999997 8.5487599999999997 
3.9932159999999999 3.7527149999999998 9.8302990000000001 
4.0157249999999998 1.195001 11.105029999999999 
4.5815429999999999 -1.316959 12.336589999999999 
5.6659800000000002 -3.6849180000000001 13.491118999999999 
7.2254170000000002 -5.817221 14.538188999999999 
9.1991560000000003 -7.6319790000000003 15.451649 
11.511760000000001 -9.0598770000000002 16.210318000000001 
14.07592 -10.046583 16.798489 
16.795660000000002 -10.554593000000001 17.206278000000001 
19.569859999999998 -10.564493000000001 17.429758 
22.295999999999999 -10.075533 17.470928000000001 
24.873871000000001 -9.1055650000000004 17.337368000000001 
27.209140999999999 -7.6902109999999997 17.041758000000002 
29.21669 -5.8814669999999998 16.601237999999999 
30.823540000000001 -3.7457259999999999 16.0366 
19.713819999999998 14.536358999999999 3.334816 
17.007290000000001 14.728128999999999 3.6671469999999999 
14.34398 14.413109 4.2086629999999996 
11.83052 13.607068999999999 4.9414480000000003 
9.5664269999999991 12.346088999999999 5.841628 
7.6400940000000004 10.684488999999999 6.8804259999999999 
6.1254580000000001 8.6920529999999996 8.0253309999999995 
5.0794980000000001 6.4507649999999996 9.2413329999999991 
4.5405350000000002 4.0513120000000002 10.492141 
4.5272620000000003 1.589459 11.74137 
5.0384719999999996 -0.83758999999999995 12.953659999999999 
6.0534239999999997 -3.1347309999999999 14.095729 
7.5328220000000004 -5.2123739999999996 15.137359 
9.4203679999999999 -6.9896159999999998 16.052168000000002 
11.64485 -8.3971260000000001 16.818438 
14.122730000000001 -9.3796379999999999 17.419598000000001 
16.76116 -9.8979859999999995 17.844698000000001 
19.461399 -9.9305780000000006 18.088629000000001 
22.12236 -9.4742519999999999 18.152079000000001 
24.644421000000001 -8.5444610000000001 18.041436999999998 
26.933060000000001 -7.1747629999999996 17.768318000000001 
28.902470000000001 -5.4156060000000004 17.34901 
30.47871 -3.3324910000000001 16.803740000000001 
19.687519000000002 13.99227 4.0973420000000003 
17.142030999999999 14.180339 4.4132619999999996 
14.634410000000001 13.896309 4.9286320000000003 
12.26323 13.153539 5.627211 
10.12114 11.983909000000001 6.487215 
8.2912040000000005 10.436199 7.4821910000000003 
6.8438369999999997 8.5738280000000007 8.5819899999999993 
5.8342450000000001 6.472092 9.7538610000000006 
5.3006169999999999 4.215077 10.963531 
5.2629440000000001 1.892382 12.17633 
5.7224930000000001 -0.40430100000000002 13.358280000000001 
6.6619109999999999 -2.5845539999999998 14.477080000000001 
8.0459589999999999 -4.5625669999999996 15.503119 
9.8228279999999994 -6.2602669999999998 16.410309000000002 
11.92601 -7.6101890000000001 17.176807 
14.27669 -8.5580160000000003 17.785678999999998 
16.786591000000001 -9.0646590000000007 18.225279 
19.361160000000002 -9.1078340000000004 18.489568999999999 
21.903099000000001 -8.6830379999999998 18.578188000000001 
24.315968999999999 -7.8038980000000002 18.496297999999999 
26.507919000000001 -6.5018039999999999 18.254297000000001 
28.395201 -4.8248550000000003 17.867290000000001 
29.905519000000002 -2.836122 17.354400999999999 
19.603339999999999 13.225588999999999 4.6295960000000003 
17.240690000000001 13.406299000000001 4.929068 
14.91154 13.152369 5.4180729999999997 
12.70621 12.475089000000001 6.0818370000000002 
10.71016 11.402559 6.9004320000000003 
9.00061 9.9784369999999996 7.8494950000000001 
7.6436310000000001 8.2600770000000008 8.9010630000000006 
6.6916989999999998 6.3162209999999996 10.024521 
6.1817840000000004 4.224259 11.187611 
6.1340380000000003 2.067231 12.357469999999999 
6.5511039999999996 -0.069351999999999997 13.50165 
7.4180489999999999 -2.100746 14.58916 
8.7029379999999996 -3.9461780000000002 15.591359000000001 
10.357989999999999 -5.5318969999999998 16.482861 
12.321339999999999 -6.793984 17.242218000000001 
14.51925 -7.6808209999999999 17.852568000000002 
16.868860000000002 -8.1551279999999995 18.302097 
19.281230999999998 -8.1954940000000001 18.584237999999999 
21.664650000000002 -7.7973270000000001 18.697846999999999 
23.928149999999999 -6.9731949999999996 18.647068000000001 
25.984988999999999 -5.7525000000000004 18.441071000000001 
27.756080999999998 -4.1804649999999999 18.093558999999999 
29.173089999999998 -2.3164880000000001 17.62219 
3 0 2 1 
3 1 2 3 
3 4 6 5 
3 5 6 7 
3 1 3 8 
3 8 3 9 
3 5 7 10 
3 10 7 11 
3 8 9 12 
3 12 9 13 
3 10 11 14 
3 14 11 15 
3 12 13 16 
3 16 13 17 
3 14 15 18 
3 18 15 19 
3 16 17 20 
3 20 17 21 
3 18 19 22 
3 22 19 23 
3 20 21 24 
3 24 21 25 
3 22 23 26 
3 26 23 27 
3 24 25 28 
3 28 25 29 
3 26 27 30 
3 30 27 31 
3 28 29 32 
3 32 29 33 
3 30 31 34 
3 34 31 35 
3 32 33 36 
3 36 33 37 
3 34 35 38 
3 38 35 39 
3 36 37 40 
3 40 37 41 
3 38 39 42 
3 42 39 43 
3 40 41 44 
3 44 41 45 
3 42 43 46 
3 46 43 47 
3 44 45 48 
3 48 45 49 
3 46 47 50 
3 50 47 51 
3 48 49 52 
3 52 49 53 
3 50 51 54 
3 54 51 55 
3 52 53 56 
3 56 53 57 
3 54 55 58 
3 58 55 59 
3 56 57 60 
3 60 57 61 
3 58 59 62 
3 62 59 63 
3 60 61 64 
3 64 61 65 
3 62 63 66 
3 66 63 67 
3 64 65 68 
3 68 65 69 
3 66 67 70 
3 70 67 71 
3 68 69 0 
3 0 69 2 
3 70 71 4 
3 4 71 6 
3 72 74 73 
3 73 74 75 
3 74 76 75 
3 75 76 77 
3 76 78 77 
3 77 78 79 
3 78 80 79 
3 79 80 81 
3 80 82 81 
3 81 82 83 
3 82 84 83 
3 83 84 85 
3 84 86 85 
3 85 86 87 
3 86 88 87 
3 87 88 89 
3 88 90 89 
3 89 90 91 
3 90 92 91 
3 91 92 93 
3 92 94 93 
3 93 94 95 
3 94 96 95 
3 95 96 97 
3 96 98 97 
3 97 98 99 
3 98 100 99 
3 99 100 101 
3 100 102 101 
3 101 102 103 
3 102 104 103 
3 103 104 105 
3 104 106 105 
3 105 106 107 
3 106 108 107 
3 107 108 109 
3 108 110 109 
3 109 110 111 
3 110 112 111 
3 111 112 113 
3 112 114 113 
3 113 114 115 
3 114 116 115 
3 115 116 117 
3 73 75 118 
3 118 75 119 
3 75 77 119 
3 119 77 120 
3 77 79 120 
3 120 79 121 
3 79 81 121 
3 121 81 122 
3 81 83 122 
3 122 83 123 
3 83 85 123 
3 123 85 124 
3 85 87 124 
3 124 87 125 
3 87 89 125 
3 125 89 126 
3 89 91 126 
3 126 91 127 
3 91 93 127 
3 127 93 128 
3 93 95 128 
3 128 95 129 
3 95 97 129 
3 129 97 130 
3 97 99 130 
3 130 99 131 
3 99 101 131 
3 131 101 132 
3 101 103 132 
3 132 103 133 
3 103 105 133 
3 133 105 134 
3 105 107 134 
3 134 107 135 
3 107 109 135 
3 135 109 136 
3 109 111 136 
3 136 111 137 
3 111 113 137 
3 137 113 138 
3 113 115 138 
3 138 115 139 
3 115 117 139 
3 139 117 140 
3 118 119 141 
3 141 119 142 
3 119 120 142 
3 142 120 143 
3 120 121 143 
3 143 121 144 
3 121 122 144 
3 144 122 145 
3 122 123 145 
3 145 123 146 
3 123 124 146 
3 146 124 147 
3 124 125 147 
3 147 125 148 
3 125 126 148 
3 148 126 149 
3 126 127 149 
3 149 127 150 
3 127 128 150 
3 150 128 151 
3 128 129 151 
3 151 129 152 
3 129 130 152 
3 152 130 153 
3 130 131 153 
3 153 131 154 
3 131 132 154 
3 154 132 155 
3 132 133 155 
3 155 133 156 
3 133 134 156 
3 156 134 157 
3 134 135 157 
3 157 135 158 
3 135 136 158 
3 158 136 159 
3 136 137 159 
3 159 137 160 
3 137 138 160 
3 160 138 161 
3 138 139 161 
3 161 139 162 
3 139 140 162 
3 162 140 163 
3 141 142 164 
3 164 142 165 
3 142 143 165 
3 165 143 166 
3 143 144 166 
3 166 144 167 
3 144 145 167 
3 167 145 168 
3 145 146 168 
3 168 146 169 
3 146 147 169 
3 169 147 170 
3 147 148 170 
3 170 148 171 
3 148 149 171 
3 171 149 172 
3 149 150 172 
3 172 150 173 
3 150 151 173 
3 173 151 174 
3 151 152 174 
3 174 152 175 
3 152 153 175 
3 175 153 176 
3 153 154 176 
3 176 154 177 
3 154 155 177 
3 177 155 178 
3 155 156 178 
3 178 156 179 
3 156 157 179 
3 179 157 180 
3 157 158 180 
3 180 158 181 
3 158 159 181 
3 181 159 182 
3 159 160 182 
3 182 160 183 
3 160 161 183 
3 183 161 184 
3 161 162 184 
3 184 162 185 
3 162 163 185 
3 185 163 186 
3 164 165 187 
3 187 165 188 
3 165 166 188 
3 188 166 189 
3 166 167 189 
3 189 167 190 
3 167 168 190 
3 190 168 191 
3 168 169 191 
3 191 169 192 
3 169 170 192 
3 192 170 193 
3 170 171 193 
3 193 171 194 
3 171 172 194 
3 194 172 195 
3 172 173 195 
3 195 173 196 
3 173 174 196 
3 196 174 197 
3 174 175 197 
3 197 175 198 
3 175 176 198 
3 198 176 199 
3 176 177 199 
3 199 177 200 
3 177 178 200 
3 200 178 201 
3 178 179 201 
3 201 179 202 
3 179 180 202 
3 202 180 203 
3 180 181 203 
3 203 181 204 
3 181 182 204 
3 204 182 205 
3 182 183 205 
3 205 183 206 
3 183 184 206 
3 206 184 207 
3 184 185 207 
3 207 185 208 
3 185 186 208 
3 208 186 209 
3 187 188 210 
3 210 188 211 
3 188 189 211 
3 211 189 212 
3 189 190 212 
3 212 190 213 
3 190 191 213 
3 213 191 214 
3 191 192 214 
3 214 192 215 
3 192 193 215 
3 215 193 216 
3 193 194 216 
3 216 194 217 
3 194 195 217 
3 217 195 218 
3 195 196 218 
3 218 196 219 
3 196 197 219 
3 219 197 220 
3 197 198 220 
3 220 198 221 
3 198 199 221 
3 221 199 222 
3 199 200 222 
3 222 200 223 
3 200 201 223 
3 223 201 224 
3 201 202 224 
3 224 202 225 
3 202 203 225 
3 225 203 226 
3 203 204 226 
3 226 204 227 
3 204 205 227 
3 227 205 228 
3 205 206 228 
3 228 206 229 
3 206 207 229 
3 229 207 230 
3 207 208 230 
3 230 208 231 
3 208 209 231 
3 231 209 232 
3 210 211 233 
3 233 211 234 
3 211 212 234 
3 234 212 235 
3 212 213 235 
3 235 213 236 
3 213 214 236 
3 236 214 237 
3 214 215 237 
3 237 215 238 
3 215 216 238 
3 238 216 239 
3 216 217 239 
3 239 217 240 
3 217 218 240 
3 240 218 241 
3 218 219 241 
3 241 219 242 
3 219 220 242 
3 242 220 243 
3 220 221 243 
3 243 221 244 
3 221 222 244 
3 244 222 245 
3 222 223 245 
3 245 223 246 
3 223 224 246 
3 246 224 247 
3 224 225 247 
3 247 225 248 
3 225 226 248 
3 248 226 249 
3 226 227 249 
3 249 227 250 
3 227 228 250 
3 250 228 251 
3 228 229 251 
3 251 229 252 
3 229 230 252 
3 252 230 253 
3 230 231 253 
3 253 231 254 
3 231 232 254 
3 254 232 255 
3 233 234 256 
3 256 234 257 
3 234 235 257 
3 257 235 258 
3 235 236 258 
3 258 236 259 
3 236 237 259 
3 259 237 260 
3 237 238 260 
3 260 238 261 
3 238 239 261 
3 261 239 262 
3 239 240 262 
3 262 240 263 
3 240 241 263 
3 263 241 264 
3 241 242 264 
3 264 242 265 
3 242 243 265 
3 265 243 266 
3 243 244 266 
3 266 244 267 
3 244 245 267 
3 267 245 268 
3 245 246 268 
3 268 246 269 
3 246 247 269 
3 269 247 270 
3 247 248 270 
3 270 248 271 
3 248 249 271 
3 271 249 272 
3 249 250 272 
3 272 250 273 
3 250 251 273 
3 273 251 274 
3 251 252 274 
3 274 252 275 
3 252 253 275 
3 275 253 276 
3 253 254 276 
3 276 254 277 
3 254 255 277 
3 277 255 278 
3 256 257 279 
3 279 257 280 
3 257 258 280 
3 280 258 281 
3 258 259 281 
3 281 259 282 
3 259 260 282 
3 282 260 283 
3 260 261 283 
3 283 261 284 
3 261 262 284 
3 284 262 285 
3 262 263 285 
3 285 263 286 
3 263 264 286 
3 286 264 287 
3 264 265 287 
3 287 265 288 
3 265 266 288 
3 288 266 289 
3 266 267 289 
3 289 267 290 
3 267 268 290 
3 290 268 291 
3 268 269 291 
3 291 269 292 
3 269 270 292 
3 292 270 293 
3 270 271 293 
3 293 271 294 
3 271 272 294 
3 294 272 295 
3 272 273 295 
3 295 273 296 
3 273 274 296 
3 296 274 297 
3 274 275 297 
3 297 275 298 
3 275 276 298 
3 298 276 299 
3 276 277 299 
3 299 277 300 
3 277 278 300 
3 300 278 301 
3 279 280 302 
3 302 280 303 
3 280 281 303 
3 303 281 304 
3 281 282 304 
3 304 282 305 
3 282 283 305 
3 305 283 306 
3 283 284 306 
3 306 284 307 
3 284 285 307 
3 307 285 308 
3 285 286 308 
3 308 286 309 
3 286 287 309 
3 309 287 310 
3 287 288 310 
3 310 288 311 
3 288 289 311 
3 311 289 312 
3 289 290 312 
3 312 290 313 
3 290 291 313 
3 313 291 314 
3 291 292 314 
3 314 292 315 
3 292 293 315 
3 315 293 316 
3 293 294 316 
3 316 294 317 
3 294 295 317 
3 317 295 318 
3 295 296 318 
3 318 296 319 
3 296 297 319 
3 319 297 320 
3 297 298 320 
3 320 298 321 
3 298 299 321 
3 321 299 322 
3 299 300 322 
3 322 300 323 
3 300 301 323 
3 323 301 324 
3 302 303 325 
3 325 303 326 
3 303 304 326 
3 326 304 327 
3 304 305 327 
3 327 305 328 
3 305 306 328 
3 328 306 329 
3 306 307 329 
3 329 307 330 
3 307 308 330 
3 330 308 331 
3 308 309 331 
3 331 309 332 
3 309 310 332 
3 332 310 333 
3 310 311 333 
3 333 311 334 
3 311 312 334 
3 334 312 335 
3 312 313 335 
3 335 313 336 
3 313 314 336 
3 336 314 337 
3 314 315 337 
3 337 315 338 
3 315 316 338 
3 338 316 339 
3 316 317 339 
3 339 317 340 
3 317 318 340 
3 340 318 341 
3 318 319 341 
3 341 319 342 
3 319 320 342 
3 342 320 343 
3 320 321 343 
3 343 321 344 
3 321 322 344 
3 344 322 345 
3 322 323 345 
3 345 323 346 
3 323 324 346 
3 346 324 347 
3 325 326 348 
3 348 326 349 
3 326 327 349 
3 349 327 350 
3 327 328 350 
3 350 328 351 
3 328 329 351 
3 351 329 352 
3 329 330 352 
3 352 330 353 
3 330 331 353 
3 353 331 354 
3 331 332 354 
3 354 332 355 
3 332 333 355 
3 355 333 356 
3 333 334 356 
3 356 334 357 
3 334 335 357 
3 357 335 358 
3 335 336 358 
3 358 336 359 
3 336 337 359 
3 359 337 360 
3 337 338 360 
3 360 338 361 
3 338 339 361 
3 361 339 362 
3 339 340 362 
3 362 340 363 
3 340 341 363 
3 363 341 364 
3 341 342 364 
3 364 342 365 
3 342 343 365 
3 365 343 366 
3 343 344 366 
3 366 344 367 
3 344 345 367 
3 367 345 368 
3 345 346 368 
3 368 346 369 
3 346 347 369 
3 369 347 370 
3 348 349 371 
3 371 349 372 
3 349 350 372 
3 372 350 373 
3 350 351 373 
3 373 351 374 
3 351 352 374 
3 374 352 375 
3 352 353 375 
3 375 353 376 
3 353 354 376 
3 376 354 377 
3 354 355 377 
3 377 355 378 
3 355 356 378 
3 378 356 379 
3 356 357 379 
3 379 357 380 
3 357 358 380 
3 380 358 381 
3 358 359 381 
3 381 359 382 
3 359 360 382 
3 382 360 383 
3 360 361 383 
3 383 361 384 
3 361 362 384 
3 384 362 385 
3 362 363 385 
3 385 363 386 
3 363 364 386 
3 386 364 387 
3 364 365 387 
3 387 365 388 
3 365 366 388 
3 388 366 389 
3 366 367 389 
3 389 367 390 
3 367 368 390 
3 390 368 391 
3 368 369 391 
3 391 369 392 
3 369 370 392 
3 392 370 393 
3 371 372 394 
3 394 372 395 
3 372 373 395 
3 395 373 396 
3 373 374 396 
3 396 374 397 
3 374 375 397 
3 397 375 398 
3 375 376 398 
3 398 376 399 
3 376 377 399 
3 399 377 400 
3 377 378 400 
3 400 378 401 
3 378 379 401 
3 401 379 402 
3 379 380 402 
3 402 380 403 
3 380 381 403 
3 403 381 404 
3 381 382 404 
3 404 382 405 
3 382 383 405 
3 405 383 406 
3 383 384 406 
3 406 384 407 
3 384 385 407 
3 407 385 408 
3 385 386 408 
3 408 386 409 
3 386 387 409 
3 409 387 410 
3 387 388 410 
3 410 388 411 
3 388 389 411 
3 411 389 412 
3 389 390 412 
3 412 390 413 
3 390 391 413 
3 413 391 414 
3 391 392 414 
3 414 392 415 
3 392 393 415 
3 415 393 416 
3 394 395 417 
3 417 395 418 
3 395 396 418 
3 418 396 419 
3 396 397 419 
3 419 397 420 
3 397 398 420 
3 420 398 421 
3 398 399 421 
3 421 399 422 
3 399 400 422 
3 422 400 423 
3 400 401 423 
3 423 401 424 
3 401 402 424 
3 424 402 425 
3 402 403 425 
3 425 403 426 
3 403 404 426 
3 426 404 427 
3 404 405 427 
3 427 405 428 
3 405 406 428 
3 428 406 429 
3 406 407 429 
3 429 407 430 
3 407 408 430 
3 430 408 431 
3 408 409 431 
3 431 409 432 
3 409 410 432 
3 432 410 433 
3 410 411 433 
3 433 411 434 
3 411 412 434 
3 434 412 435 
3 412 413 435 
3 435 413 436 
3 413 414 436 
3 436 414 437 
3 414 415 437 
3 437 415 438 
3 415 416 438 
3 438 416 439 
3 417 418 440 
3 440 418 441 
3 418 419 441 
3 441 419 442 
3 419 420 442 
3 442 420 443 
3 420 421 443 
3 443 421 444 
3 421 422 444 
3 444 422 445 
3 422 423 445 
3 445 423 446 
3 423 424 446 
3 446 424 447 
3 424 425 447 
3 447 425 448 
3 425 426 448 
3 448 426 449 
3 426 427 449 
3 449 427 450 
3 427 428 450 
3 450 428 451 
3 428 429 451 
3 451 429 452 
3 429 430 452 
3 452 430 453 
3 430 431 453 
3 453 431 454 
3 431 432 454 
3 454 432 455 
3 432 433 455 
3 455 433 456 
3 433 434 456 
3 456 434 457 
3 434 435 457 
3 457 435 458 
3 435 436 458 
3 458 436 459 
3 436 437 459 
3 459 437 460 
3 437 438 460 
3 460 438 461 
3 438 439 461 
3 461 439 462 
3 440 441 463 
3 463 441 464 
3 441 442 464 
3 464 442 465 
3 442 443 465 
3 465 443 466 
3 443 444 466 
3 466 444 467 
3 444 445 467 
3 467 445 468 
3 445 446 468 
3 468 446 469 
3 446 447 469 
3 469 447 470 
3 447 448 470 
3 470 448 471 
3 448 449 471 
3 471 449 472 
3 449 450 472 
3 472 450 473 
3 450 451 473 
3 473 451 474 
3 451 452 474 
3 474 452 475 
3 452 453 475 
3 475 453 476 
3 453 454 476 
3 476 454 477 
3 454 455 477 
3 477 455 478 
3 455 456 478 
3 478 456 479 
3 456 457 479 
3 479 457 480 
3 457 458 480 
3 480 458 481 
3 458 459 481 
3 481 459 482 
3 459 460 482 
3 482 460 483 
3 460 461 483 
3 483 461 484 
3 461 462 484 
3 484 462 485 
3 463 464 72 
3 72 464 74 
3 464 465 74 
3 74 465 76 
3 465 466 76 
3 76 466 78 
3 466 467 78 
3 78 467 80 
3 467 468 80 
3 80 468 82 
3 468 469 82 
3 82 469 84 
3 469 470 84 
3 84 470 86 
3 470 471 86 
3 86 471 88 
3 471 472 88 
3 88 472 90 
3 472 473 90 
3 90 473 92 
3 473 474 92 
3 92 474 94 
3 474 475 94 
3 94 475 96 
3 475 476 96 
3 96 476 98 
3 476 477 98 
3 98 477 100 
3 477 478 100 
3 100 478 102 
3 478 479 102 
3 102 479 104 
3 479 480 104 
3 104 480 106 
3 480 481 106 
3 106 481 108 
3 481 482 108 
3 108 482 110 
3 482 483 110 
3 110 483 112 
3 483 484 112 
3 112 484 114 
3 484 485 114 
3 114 485 116 
3 2 72 3 
3 3 72 73 
3 116 4 117 
3 117 4 5 
3 3 73 9 
3 9 73 118 
3 117 5 140 
3 140 5 10 
3 9 118 13 
3 13 118 141 
3 140 10 163 
3 163 10 14 
3 13 141 17 
3 17 141 164 
3 163 14 186 
3 186 14 18 
3 17 164 21 
3 21 164 187 
3 186 18 209 
3 209 18 22 
3 21 187 25 
3 25 187 210 
3 209 22 232 
3 232 22 26 
3 25 210 29 
3 29 210 233 
3 232 26 255 
3 255 26 30 
3 29 233 33 
3 33 233 256 
3 255 30 278 
3 278 30 34 
3 33 256 37 
3 37 256 279 
3 278 34 301 
3 301 34 38 
3 37 279 41 
3 41 279 302 
3 301 38 324 
3 324 38 42 
3 41 302 45 
3 45 302 325 
3 324 42 347 
3 347 42 46 
3 45 325 49 
3 49 325 348 
3 347 46 370 
3 370 46 50 
3 49 348 53 
3 53 348 371 
3 370 50 393 
3 393 50 54 
3 53 371 57 
3 57 371 394 
3 393 54 416 
3 416 54 58 
3 57 394 61 
3 61 394 417 
3 416 58 439 
3 439 58 62 
3 61 417 65 
3 65 417 440 
3 439 62 462 
3 462 62 66 
3 65 440 69 
3 69 440 463 
3 462 66 485 
3 485 66 70 
3 69 463 2 
3 2 463 72 
3 485 70 116 
3 116 70 4 
3 56 60 64 
3 56 64 68 
3 52 56 68 
3 12 16 20 
3 1 8 12 
3 28 32 36 
3 28 36 40 
3 20 24 28 
3 20 28 40 
3 68 0 1 
3 68 1 12 
3 68 12 20 
3 44 48 52 
3 44 52 68 
3 40 44 68 
3 68 20 40 
3 23 19 15 
3 55 51 47 
3 59 55 47 
3 59 47 43 
3 43 39 35 
3 71 67 63 
3 71 63 59 
3 71 59 43 
3 15 11 7 
3 7 6 71 
3 7 71 43 
3 7 43 35 
3 31 27 23 
3 31 23 15 
3 35 31 15 
3 7 35 15 
