ply
format ascii 1.0
element vertex 486
property double x
property double y
property double z
element face 968
property list uchar int vertex_indices
end_header
58.734921 22.388148999999999 1.1425399999999999 
12.43493 22.388148999999999 1.1425399999999999 
58.734921 21.506989999999998 0.75769900000000001 
12.43493 21.506989999999998 0.75769900000000001 
10.243690000000001 22.172920000000001 1.192456 
10.404159999999999 21.306419000000002 0.80786599999999997 
8.136018 21.53537 1.341342 
8.4519140000000004 20.712468999999999 0.95748900000000003 
6.1924049999999999 20.499580000000002 1.586627 
6.6536840000000002 19.748038999999999 1.203935 
4.4872649999999998 19.104780000000002 1.9240759999999999 
5.0790579999999999 18.450438999999999 1.5428820000000001 
3.0861360000000002 17.403939999999999 2.3478680000000001 
3.7890100000000002 16.86985 1.968396 
2.0431409999999999 15.46189 2.8507039999999999 
2.8335140000000001 15.06748 2.473055 
1.3988480000000001 13.352888 3.4239329999999999 
2.249574 13.113208 3.048082 
1.1785939999999999 11.157897999999999 4.057709 
2.0597340000000002 11.082838000000001 3.6835100000000001 
1.3914029999999999 8.9614600000000006 4.7411490000000001 
2.2711709999999998 9.0551530000000007 4.3683519999999998 
2.0295230000000002 6.8483739999999997 5.4625380000000003 
2.875391 7.1088120000000004 5.0908049999999996 
3.0686439999999999 4.9004070000000004 6.209511 
3.84856 5.3192069999999996 5.8384419999999997 
4.4687830000000002 3.1930209999999999 6.9692759999999998 
5.1524599999999996 3.755487 6.5984340000000001 
6.1758430000000004 1.792367 7.7288350000000001 
6.7360429999999996 2.4778150000000001 7.3577680000000001 
8.1237300000000001 0.752637 8.4751879999999993 
8.5375119999999995 1.5350090000000001 8.1034559999999995 
10.236980000000001 0.11391999999999999 9.1955819999999999 
10.48682 0.96265599999999996 8.8227840000000004 
12.4338 -0.099376999999999993 9.8777069999999991 
12.508509999999999 0.78179299999999996 9.5035059999999998 
14.62928 0.120562 10.509912999999999 
14.524760000000001 0.99820500000000001 10.134062 
16.738779000000001 0.76472799999999996 11.081422 
16.458389 1.602357 10.703773 
18.681290000000001 1.80775 11.582497 
18.235949999999999 2.569957 11.203025 
20.382449999999999 3.2089979999999998 12.004611000000001 
19.790379999999999 3.863086 11.623415 
21.777439000000001 4.9142749999999999 12.340586999999999 
21.063499 5.4318309999999999 11.957891 
22.813310999999999 6.8579920000000003 12.584714 
22.007971000000001 7.2163040000000001 12.200858999999999 
23.450880000000002 8.9657090000000004 12.732868 
22.588909000000001 9.1489340000000006 12.348280000000001 
23.668520000000001 11.202885999999999 12.782572 
22.792169999999999 11.295026 12.397792000000001 
23.666108999999999 39.456950999999997 12.782546 
22.784949999999998 39.456950999999997 12.397705999999999 
58.734921 20.78866 0.034417000000000003 
12.43493 20.78866 0.034417000000000003 
10.522790000000001 20.59815 0.085419999999999996 
8.6861599999999992 20.034200999999999 0.23748 
6.9975269999999998 19.119249 0.48776700000000001 
5.5234170000000002 17.889669000000001 0.83165199999999995 
4.3217530000000002 16.39432 1.262826 
3.4395229999999999 14.692550000000001 1.7734479999999999 
2.9109090000000002 12.85182 2.3543319999999999 
2.7559239999999998 10.944917999999999 2.995123 
2.9796399999999998 9.0470860000000002 3.6844990000000002 
3.5720200000000002 7.2328679999999999 4.4103859999999999 
4.5083960000000003 5.5731229999999998 5.160164 
5.7505559999999996 4.1321240000000001 5.920884 
7.2484250000000001 2.9649709999999998 6.6794890000000002 
8.9422490000000003 2.1154120000000001 7.423038 
10.765180000000001 1.6141989999999999 8.1389320000000005 
12.64615 1.47804 8.8151189999999993 
14.51285 1.7092240000000001 9.4403129999999997 
16.29467 2.295909 10.004168 
17.925439999999998 3.2130209999999999 10.497458 
19.345790999999998 4.4236740000000001 10.912184 
20.505039 5.8809909999999999 11.241721999999999 
21.362649999999999 7.5301119999999999 11.480854000000001 
21.889139 9.310295 11.625838 
22.078500999999999 11.376276000000001 11.674719 
22.066628999999999 39.456958999999998 11.674423000000001 
58.734921 20.319799 -0.94006599999999996 
12.43493 20.319799 -0.94006599999999996 
10.58536 20.132950000000001 -0.88787000000000005 
8.8113679999999999 19.580231000000001 -0.73233099999999995 
7.1852 18.684759 -0.47656399999999999 
5.7726870000000003 17.48385 -0.12563199999999999 
4.6304449999999999 16.027339999999999 0.31361299999999998 
3.8035489999999998 14.37527 0.83274199999999998 
3.3237570000000001 12.5953 1.421975 
3.2083360000000001 10.75976 2.0704060000000002 
3.459508 8.9425589999999993 2.7662399999999998 
4.06454 7.2161239999999998 3.4970219999999999 
4.9964690000000003 5.6483429999999997 4.2498480000000001 
6.2154249999999998 4.2997909999999999 5.0115999999999996 
7.6705310000000004 3.2212909999999999 5.7691730000000003 
9.3022779999999994 2.451918 6.5096740000000004 
11.045260000000001 2.01763 7.220675 
12.83113 1.9305270000000001 7.8904019999999999 
14.591620000000001 2.188847 8.5079550000000008 
16.261379000000002 2.7776510000000001 9.0634610000000002 
17.780470000000001 3.6701290000000002 9.5482449999999996 
19.096350000000001 4.8293869999999997 9.9549009999999996 
20.16527 6.2104749999999997 10.27739 
20.953050999999999 7.762486 10.511043000000001 
21.435381 9.4304489999999994 10.652547999999999 
21.613430000000001 11.436836 10.700535 
21.597759 39.456958999999998 10.699942 
58.734921 20.156960000000002 -2.0482130000000001 
12.43493 20.156960000000002 -2.0482130000000001 
10.584339999999999 19.966930000000001 -1.9946109999999999 
8.8124350000000007 19.4053 -1.834972 
7.1940670000000004 18.496969 -1.5727450000000001 
5.7968029999999997 17.281939999999999 -1.2135089999999999 
4.6778550000000001 15.813179999999999 -0.76475199999999999 
3.8816850000000001 14.153919999999999 -0.23560300000000001 
3.4383240000000002 12.374610000000001 0.36346400000000001 
3.3624019999999999 10.54968 1.020896 
3.6528969999999998 8.7541790000000006 1.724335 
4.2935480000000004 7.0605960000000003 2.4608759999999998 
5.2539100000000003 5.5357890000000003 3.2172900000000002 
6.4909949999999998 4.2382660000000003 3.9802629999999999 
7.9514480000000001 3.2158579999999999 4.7366109999999999 
9.574173 2.5039380000000002 5.4735269999999998 
11.29327 2.1242890000000001 6.1787700000000001 
13.04115 2.0846779999999998 6.8408920000000002 
14.75159 2.3792200000000001 7.4494439999999997 
16.362559999999998 2.9894720000000001 7.9951189999999999 
17.818529000000002 3.8861500000000002 8.4698779999999996 
19.072149 5.0312840000000003 8.8670240000000007 
20.085159000000001 6.3805440000000004 9.1812100000000001 
20.828581 7.8853960000000001 9.4084009999999996 
21.282378999999999 9.494904 9.5458049999999997 
21.453060000000001 11.469417 9.5927389999999999 
21.434919000000001 39.456958999999998 9.5917949999999994 
58.734921 20.319770999999999 -3.1563639999999999 
12.43493 20.319770999999999 -3.1563639999999999 
10.51986 20.12011 -3.1013139999999999 
8.6892320000000005 19.53051 -2.9374449999999999 
7.0230589999999999 18.57855 -2.6685590000000001 
5.5928550000000001 17.308299999999999 -2.3007629999999999 
4.4582620000000004 15.777670000000001 -1.842203 
3.664507 14.05518 -1.3027260000000001 
3.2407910000000002 12.21636 -0.69352599999999998 
3.1995390000000001 10.340020000000001 -0.026823 
3.5364800000000001 8.5046660000000003 0.68445 
4.23142 6.7850450000000002 1.4269259999999999 
5.2496689999999999 5.2490430000000003 2.1870340000000001 
6.5440290000000001 3.954971 2.9512619999999998 
8.0572940000000006 2.9493279999999999 3.7063570000000001 
9.7251410000000007 2.2651979999999998 4.4395769999999999 
11.4793 1.921311 5.1388850000000001 
13.250870000000001 1.921899 5.7931730000000003 
14.97344 2.2573840000000001 6.392455 
16.585978999999998 2.9058259999999998 6.927994 
18.035021 3.8350240000000002 7.3924260000000004 
19.276109999999999 5.0050169999999996 7.7797700000000001 
20.274370000000001 6.3706820000000004 8.0853959999999994 
21.00423 7.8840190000000003 8.3059270000000005 
21.44858 9.4958840000000002 8.4391040000000004 
21.616738999999999 11.470078000000001 8.4849499999999995 
21.597740000000002 39.456958999999998 8.483644 
58.734921 20.788620000000002 -4.1308600000000002 
12.43493 20.788620000000002 -4.1308600000000002 
10.39967 20.57403 -4.0744910000000001 
8.4566199999999991 19.940760000000001 -3.9067780000000001 
6.6928020000000004 18.919649 -3.6318350000000001 
5.1854440000000004 17.559730999999999 -3.2562540000000002 
3.998154 15.925090000000001 -2.7887810000000002 
3.17821 14.09098 -2.239916 
2.754982 12.13963 -1.621507 
2.739392 10.15607 -0.94637800000000005 
3.1242999999999999 8.2241169999999997 -0.22798599999999999 
3.8856510000000002 6.4227080000000001 0.51987899999999998 
4.9842550000000001 4.8226899999999997 1.283344 
6.3681299999999998 3.4840710000000001 2.0487120000000001 
7.975301 2.4538509999999998 2.802667 
9.7369710000000005 1.764494 3.5325299999999999 
11.580920000000001 1.4331780000000001 4.2264480000000004 
13.435 1.4618260000000001 4.8736189999999997 
15.23043 1.8380350000000001 5.4644729999999999 
16.904710999999999 2.5368019999999998 5.9908029999999997 
18.403829999999999 3.5229189999999999 6.4458479999999998 
19.683620000000001 4.7537539999999998 6.8242770000000004 
20.710079 6.18208 7.1221199999999998 
21.458839000000001 7.758521 7.3365960000000001 
21.91395 9.4332720000000005 7.4659250000000004 
22.084709 11.438738000000001 7.5107840000000001 
22.066589 39.456958999999998 7.5091469999999996 
58.734921 21.506941000000001 -4.8541600000000003 
12.43493 21.506941000000001 -4.8541600000000003 
10.238289999999999 21.27392 -4.7967620000000002 
8.1426549999999995 20.586570999999999 -4.6260510000000004 
6.243131 19.479130000000001 -4.3463849999999997 
4.6237089999999998 18.00592 -3.9647350000000001 
3.3530280000000001 16.237659000000001 -3.4903149999999998 
2.4814500000000002 14.256982000000001 -2.9341339999999998 
2.0394950000000001 12.15368 -2.3085490000000002 
2.0374599999999998 10.020020000000001 -1.6268560000000001 
2.4660730000000002 7.9463710000000001 -0.90292099999999997 
3.297946 6.0172869999999996 -0.15085799999999999 
4.4896839999999996 4.3081519999999998 0.61522200000000005 
5.984515 2.882368 1.381472 
7.7153600000000004 1.789185 2.1345429999999999 
9.6082380000000001 1.0622199999999999 2.8617919999999999 
11.58587 0.71876700000000004 3.5515129999999999 
13.57133 0.75994899999999999 4.1931399999999996 
15.49155 1.171751 4.777431 
17.2803 1.926911 5.2965869999999997 
18.880479999999999 2.987482 5.7443160000000004 
20.245540999999999 4.3077990000000002 6.1157969999999997 
21.339749999999999 5.8374870000000003 6.4075699999999998 
22.137550000000001 7.5240359999999997 6.6173209999999996 
22.622339 9.3146199999999997 6.7436530000000001 
22.800540999999999 11.379187999999999 6.7877400000000003 
22.784901000000001 39.456958999999998 6.7858450000000001 
58.734921 22.388089999999998 -5.2390239999999997 
12.43493 22.388089999999998 -5.2390239999999997 
10.05518 22.135380000000001 -5.181012 
7.7852059999999996 21.390039000000002 -5.0085119999999996 
5.728281 20.189501 -4.7260270000000002 
3.9754040000000002 18.593050000000002 -4.3407549999999997 
2.6006930000000001 16.677679000000001 -3.8621889999999999 
1.6582650000000001 14.533182 -3.3016459999999999 
1.1806270000000001 12.256819999999999 -2.6717849999999999 
1.1784079999999999 9.9482820000000007 -1.986183 
1.641189 7.7049269999999996 -1.258947 
2.5391900000000001 5.6176820000000003 -0.504386 
3.8256060000000001 3.7674919999999998 0.26324900000000001 
5.4394520000000002 2.2224349999999999 1.0300290000000001 
7.3088240000000004 1.035501 1.7825709999999999 
9.3544680000000007 0.24307699999999999 2.508264 
11.493539999999999 -0.13575300000000001 3.195487 
13.643420000000001 -0.099073999999999995 3.8338130000000001 
15.72532 0.338897 4.414193 
17.667439999999999 1.1497139999999999 4.9290729999999998 
19.40748 2.2932929999999998 5.372439 
20.894091 3.7209439999999998 5.7397770000000001 
22.087409999999998 5.3784669999999997 6.027927 
22.95853 7.2088510000000001 6.2348600000000003 
23.488309999999998 9.1542390000000005 6.3594010000000001 
23.677879000000001 11.298608 6.4030290000000001 
23.666049999999998 39.456958999999998 6.4009790000000004 
58.734921 23.325790000000001 -5.2390330000000001 
12.43493 23.325790000000001 -5.2390330000000001 
9.8724229999999995 23.054489 -5.1808949999999996 
7.4273879999999997 22.254270999999999 -5.0080260000000001 
5.2103520000000003 20.965098999999999 -4.7249670000000004 
3.318724 19.250298999999998 -4.3389579999999999 
1.8318939999999999 17.192080000000001 -3.8595519999999999 
0.807944 14.886262 -3.298127 
0.281972 12.43661 -2.6674039999999999 
0.26584999999999998 9.9494989999999994 -1.9810179999999999 
0.749143 7.5289080000000004 -1.2531220000000001 
1.7009019999999999 5.2720919999999998 -0.49806400000000001 
3.0721210000000001 3.2659210000000001 0.26988000000000001 
4.798686 1.583871 1.0367649999999999 
6.8047259999999996 0.28370400000000001 1.789202 
9.0062700000000007 -0.59413099999999996 2.5145870000000001 
11.31508 -1.0273129999999999 3.2013120000000002 
13.642569999999999 -1.011633 3.838978 
15.90353 -0.56007200000000001 4.4185749999999997 
18.019449000000002 0.29895300000000002 4.9325929999999998 
19.921261000000001 1.524081 5.375076 
21.55105 3.0639699999999999 5.7415719999999997 
22.8629 4.8603820000000004 6.028988 
23.822728999999999 6.8509789999999997 6.2353440000000004 
24.407430999999999 8.9714740000000006 6.3595189999999997 
24.61092 11.206708000000001 6.4030509999999996 
24.603760000000001 39.456958999999998 6.4009720000000003 
58.734921 24.206939999999999 -4.8541840000000001 
12.43493 24.206939999999999 -4.8541840000000001 
9.7120630000000006 23.920400999999998 -4.796424 
7.1123580000000004 23.075009999999999 -4.6246580000000002 
4.7518140000000004 21.712351000000002 -4.3433349999999997 
2.7328760000000001 19.898389999999999 -3.9595609999999999 
1.1393610000000001 17.718809 -3.4827180000000002 
0.033050000000000003 15.273619999999999 -2.9239980000000001 
-0.54807899999999998 12.67135 -2.2959339999999999 
-0.590144 10.023529999999999 -1.6119840000000001 
-0.10247100000000001 7.4395439999999997 -0.88614899999999996 
0.88419300000000001 5.0222009999999999 -0.13265299999999999 
2.3201109999999998 2.8639380000000001 0.63431499999999996 
4.1395020000000002 1.043696 1.4008700000000001 
6.2638689999999997 -0.37552600000000003 2.1536390000000001 
8.6056419999999996 -1.3484229999999999 2.8799980000000001 
11.07202 -1.8483799999999999 3.5682839999999998 
13.56889 -1.8676569999999999 4.2080130000000002 
16.004681000000001 -1.4167259999999999 4.7900450000000001 
18.293870999999999 -0.52275700000000003 5.3067209999999996 
20.359859 0.77262799999999998 5.7519099999999996 
22.137170999999999 2.4161199999999998 6.1209699999999998 
23.572669999999999 4.3457229999999996 6.4106180000000004 
24.625931000000001 6.4935859999999996 6.6187129999999996 
25.268809999999998 8.7883669999999992 6.7439900000000002 
25.487120000000001 11.114587999999999 6.7878049999999996 
25.484908999999998 39.456958999999998 6.7858200000000002 
58.734921 24.925270000000001 -4.1308959999999999 
12.43493 24.925270000000001 -4.1308959999999999 
9.5934399999999993 24.62867 -4.0739720000000004 
6.8781129999999999 23.753260000000001 -3.9046419999999999 
4.4079750000000004 22.341149999999999 -3.6271589999999998 
2.2885200000000001 20.459160000000001 -3.248326 
0.60662199999999999 18.194348999999999 -2.777142 
-0.57295399999999996 15.64855 -2.2243849999999998 
-1.209409 12.932740000000001 -1.6021799999999999 
-1.28633 10.161440000000001 -0.92359100000000005 
-0.81093499999999996 7.4476120000000003 -0.20229 
0.18756800000000001 4.8981479999999999 0.54777100000000001 
1.6602779999999999 2.610026 1.3126 
3.5414080000000001 0.66706299999999996 2.0784289999999999 
5.7514880000000002 -0.86267799999999994 2.8319230000000002 
8.2009059999999998 -1.928825 3.560422 
10.793659999999999 -2.4999189999999998 4.2521430000000002 
13.43125 -2.563898 4.8964059999999998 
16.016590000000001 -2.1277400000000002 5.4837990000000003 
18.45759 -1.216305 6.0063329999999997 
20.670361 0.12956699999999999 6.4574860000000003 
22.581759999999999 1.855534 6.8322050000000001 
24.131121 3.896566 7.126792 
25.271239999999999 6.1797779999999998 7.3387279999999997 
25.968589999999999 8.6270070000000008 7.4664440000000001 
26.200790000000001 11.033340000000001 7.510885 
26.203239 39.456958999999998 7.5091080000000003 
58.734921 25.394119 -3.156409 
12.43493 25.394119 -3.156409 
9.5308639999999993 25.093869999999999 -3.1006779999999998 
6.7529079999999997 24.207229999999999 -2.9348260000000002 
4.2203039999999996 22.775639999999999 -2.6628229999999999 
2.0392540000000001 20.864968999999999 -2.2910370000000002 
0.29793500000000001 18.561319000000001 -1.827925 
-0.93697399999999997 15.96583 -1.283674 
-1.622252 13.189249999999999 -0.669817 
-1.7387360000000001 10.34661 0.001129 
-1.290797 7.5521430000000001 0.71597100000000002 
-0.304948 4.9148969999999998 1.4611400000000001 
1.17221 2.5348109999999999 2.2229199999999998 
3.076543 0.49940000000000001 2.9877150000000001 
5.3293850000000003 -1.118994 3.7422439999999999 
7.840878 -2.2653249999999998 4.4737900000000002 
10.513579999999999 -2.903343 5.1704030000000003 
13.246270000000001 -3.016378 5.8211250000000003 
15.937810000000001 -2.6073559999999998 6.4161619999999999 
18.490870000000001 -1.6980390000000001 6.9470419999999997 
20.815331 -0.32753599999999999 7.4067040000000004 
22.831189999999999 1.449827 7.7894930000000002 
24.470890000000001 3.5670839999999999 8.0911290000000005 
25.68083 5.9474070000000001 8.3085439999999995 
26.422331 8.5068540000000006 8.4397359999999999 
26.665849999999999 10.972778 8.4850729999999999 
26.672091000000002 39.456958999999998 8.4835949999999993 
58.734921 25.556958999999999 -2.0482610000000001 
12.43493 25.556958999999999 -2.0482610000000001 
9.5318830000000005 25.259879999999999 -1.993935 
6.7518440000000002 24.382159999999999 -1.832184 
4.2114409999999998 22.963421 -1.566641 
2.0151439999999998 21.066879 -1.20316 
0.250531 18.775480000000002 -0.74955899999999998 
-1.015104 16.187180000000001 -0.21532799999999999 
-1.736812 13.40995 0.38869399999999998 
-1.892795 10.55669 1.0506409999999999 
-1.4841800000000001 7.7405229999999996 1.7578769999999999 
-0.53394900000000001 5.0704260000000003 2.4972859999999999 
0.91477399999999998 2.647367 3.2554810000000001 
2.8009770000000001 0.56092799999999998 4.019056 
5.0484710000000002 -1.113556 4.7748030000000004 
7.5689849999999996 -2.317339 5.5099349999999996 
10.26557 -3.009995 6.212313 
13.036250000000001 -3.1705220000000001 6.8706360000000002 
15.777850000000001 -2.797723 7.4746750000000004 
18.389700000000001 -1.9098539999999999 8.0153890000000008 
20.777269 -0.54354899999999995 8.4850689999999993 
22.855391000000001 1.2479340000000001 8.8773710000000001 
24.551000999999999 3.3970210000000001 9.1873100000000001 
25.805309000000001 5.8244999999999996 9.4111849999999997 
26.575330999999998 8.4424010000000003 9.5464769999999994 
26.82621 10.940206999999999 9.5928690000000003 
26.83493 39.456958999999998 9.5917429999999992 
58.734921 25.394131000000002 -0.94011199999999995 
12.43493 25.394131000000002 -0.94011199999999995 
9.5963740000000008 25.106688999999999 -0.887235 
6.8750499999999999 24.256941000000001 -0.72971299999999995 
4.3824529999999999 22.881830000000001 -0.470829 
2.219096 21.040520000000001 -0.115907 
0.47012900000000002 18.810980000000001 0.32789000000000001 
-0.79792099999999999 16.285910000000001 0.85179300000000002 
-1.539272 13.568199999999999 1.4456819999999999 
-1.7299260000000001 10.766349999999999 2.0983580000000002 
-1.3677569999999999 7.9900370000000001 2.7977599999999998 
-0.47181499999999998 5.34598 3.5312350000000001 
0.91902099999999998 2.9341159999999999 4.2857349999999999 
2.7479480000000001 0.84423000000000004 5.0480539999999996 
4.9426300000000003 -0.84702 5.8050569999999997 
7.4180200000000003 -2.0785930000000001 6.5438859999999996 
10.07953 -2.8070110000000001 7.252192 
12.82653 -3.0077370000000001 7.9183539999999999 
15.55599 -2.6758799999999998 8.5316620000000007 
18.166269 -1.8262020000000001 9.0825099999999992 
20.560780000000001 -0.49242000000000002 9.5625180000000007 
22.651430000000001 1.2742039999999999 9.9646240000000006 
24.36178 3.4068849999999999 10.283124000000001 
25.629640999999999 5.8258780000000003 10.513659000000001 
26.409120999999999 8.4414219999999993 10.653179 
26.662531000000001 10.939546 10.700656 
26.6721 39.456958999999998 10.699894 
58.734921 24.925288999999999 0.034380000000000001 
12.43493 24.925288999999999 0.034380000000000001 
9.7165569999999999 24.652768999999999 0.085938000000000001 
7.1076639999999998 23.846679999999999 0.23961499999999999 
4.7127129999999999 22.54073 0.49244199999999999 
2.6265109999999998 20.789079999999998 0.83957999999999999 
0.93024200000000001 18.663561000000001 1.274465 
-0.31161899999999998 16.250111 1.7889790000000001 
-1.053458 13.644920000000001 2.3736609999999998 
-1.2697719999999999 10.950288 3.0179079999999998 
-0.95557099999999995 8.2705850000000005 3.7101920000000002 
-0.12604099999999999 5.7083170000000001 4.4382780000000004 
1.1844399999999999 3.3604720000000001 5.1894179999999999 
2.923851 1.3151330000000001 5.9506009999999998 
5.0246259999999996 -0.35153699999999999 6.7087430000000001 
7.4061919999999999 -1.5778840000000001 7.4509290000000004 
9.9779169999999997 -2.318873 8.1646260000000002 
12.6424 -2.5476580000000002 8.8379049999999992 
15.298999999999999 -2.256526 9.4596389999999992 
17.847539999999999 -1.4571750000000001 10.019697000000001 
20.191959000000001 -0.18031 10.509092000000001 
22.24391 1.5254730000000001 10.920111 
23.92606 3.595491 11.246396000000001 
25.17503 5.9513809999999996 11.482984999999999 
25.943750000000001 8.504035 11.626352000000001 
26.19455 10.970876000000001 11.674818 
26.203251000000002 39.456958999999998 11.674386 
58.734921 24.206961 0.75767399999999996 
12.43493 24.206961 0.75767399999999996 
9.877936 23.952869 0.80820499999999995 
7.4216290000000003 23.200870999999999 0.95888300000000004 
5.1623859999999997 21.981251 1.206987 
3.1882489999999999 20.342890000000001 1.548057 
1.575372 18.350981000000001 1.975992 
0.38514599999999999 16.084101 2.4831910000000001 
-0.33796700000000002 13.630868 3.0606969999999998 
-0.56783700000000004 11.086338 3.6983809999999999 
-0.29733900000000002 8.5483309999999992 4.3851209999999998 
0.461669 6.1137389999999998 5.1090090000000004 
1.6790160000000001 3.8750110000000002 5.8575350000000004 
3.307471 1.916838 6.6178330000000001 
5.2845709999999997 0.31313200000000002 7.3768599999999998 
7.5349279999999998 -0.87560400000000005 8.1216600000000003 
9.9729740000000007 -1.6044579999999999 8.839556 
12.506069999999999 -1.8457790000000001 9.5183769999999992 
15.037879999999999 -1.590239 10.146677 
17.471951000000001 -0.847279 10.713908999999999 
19.715309000000001 0.35513099999999997 11.210621 
21.681979999999999 1.9714309999999999 11.628586 
23.296391 3.940086 11.960940000000001 
24.496309 6.1858659999999999 12.202249999999999 
25.235358999999999 8.6226880000000001 12.348615000000001 
25.478719999999999 11.030426 12.397853 
25.484929999999999 39.456950999999997 12.397683000000001 
58.734921 23.325809 1.1425320000000001 
12.43493 23.325809 1.1425320000000001 
10.06105 23.09141 1.192448 
7.7790790000000003 22.397390000000001 1.3413360000000001 
5.677238 21.270861 1.5866199999999999 
3.8365550000000002 19.755759999999999 1.9240679999999999 
2.3277079999999999 17.910958999999998 2.3478599999999998 
1.2083330000000001 15.8079 2.8506969999999998 
0.520903 13.527728 3.4239259999999998 
0.29121799999999998 11.158078 4.0577009999999998 
0.52754699999999999 8.7897750000000006 4.7411409999999998 
1.2204269999999999 6.5133429999999999 5.462529 
2.3430960000000001 4.4156709999999997 6.2095029999999998 
3.8525360000000002 2.5767709999999999 6.9692689999999997 
5.6911100000000001 1.0668169999999999 7.7288259999999998 
7.7887009999999997 -0.056460000000000003 8.4751809999999992 
10.065300000000001 -0.74993699999999996 9.1955760000000009 
12.43398 -0.98675400000000002 9.8776980000000005 
14.804119999999999 -0.757382 10.509905 
17.084810000000001 -0.070080000000000003 11.081414000000001 
19.188310999999999 1.049323 11.582489000000001 
21.033429999999999 2.5582889999999998 12.004597 
22.548731 4.3991090000000002 12.340574 
23.675329000000001 6.5010539999999999 12.584702 
24.369381000000001 8.7830709999999996 12.732868 
24.601369999999999 11.111015999999999 12.78256 
24.603781000000001 39.456950999999997 12.782534 
3 0 1 2 
3 2 1 3 
3 1 4 3 
3 3 4 5 
3 4 6 5 
3 5 6 7 
3 6 8 7 
3 7 8 9 
3 8 10 9 
3 9 10 11 
3 10 12 11 
3 11 12 13 
3 12 14 13 
3 13 14 15 
3 14 16 15 
3 15 16 17 
3 16 18 17 
3 17 18 19 
3 18 20 19 
3 19 20 21 
3 20 22 21 
3 21 22 23 
3 22 24 23 
3 23 24 25 
3 24 26 25 
3 25 26 27 
3 26 28 27 
3 27 28 29 
3 28 30 29 
3 29 30 31 
3 30 32 31 
3 31 32 33 
3 32 34 33 
3 33 34 35 
3 34 36 35 
3 35 36 37 
3 36 38 37 
3 37 38 39 
3 38 40 39 
3 39 40 41 
3 40 42 41 
3 41 42 43 
3 42 44 43 
3 43 44 45 
3 44 46 45 
3 45 46 47 
3 46 48 47 
3 47 48 49 
3 48 50 49 
3 49 50 51 
3 50 52 51 
3 51 52 53 
3 2 3 54 
3 54 3 55 
3 3 5 55 
3 55 5 56 
3 5 7 56 
3 56 7 57 
3 7 9 57 
3 57 9 58 
3 9 11 58 
3 58 11 59 
3 11 13 59 
3 59 13 60 
3 13 15 60 
3 60 15 61 
3 15 17 61 
3 61 17 62 
3 17 19 62 
3 62 19 63 
3 19 21 63 
3 63 21 64 
3 21 23 64 
3 64 23 65 
3 23 25 65 
3 65 25 66 
3 25 27 66 
3 66 27 67 
3 27 29 67 
3 67 29 68 
3 29 31 68 
3 68 31 69 
3 31 33 69 
3 69 33 70 
3 33 35 70 
3 70 35 71 
3 35 37 71 
3 71 37 72 
3 37 39 72 
3 72 39 73 
3 39 41 73 
3 73 41 74 
3 41 43 74 
3 74 43 75 
3 43 45 75 
3 75 45 76 
3 45 47 76 
3 76 47 77 
3 47 49 77 
3 77 49 78 
3 49 51 78 
3 78 51 79 
3 51 53 79 
3 79 53 80 
3 54 55 81 
3 81 55 82 
3 55 56 82 
3 82 56 83 
3 56 57 83 
3 83 57 84 
3 57 58 84 
3 84 58 85 
3 58 59 85 
3 85 59 86 
3 59 60 86 
3 86 60 87 
3 60 61 87 
3 87 61 88 
3 61 62 88 
3 88 62 89 
3 62 63 89 
3 89 63 90 
3 63 64 90 
3 90 64 91 
3 64 65 91 
3 91 65 92 
3 65 66 92 
3 92 66 93 
3 66 67 93 
3 93 67 94 
3 67 68 94 
3 94 68 95 
3 68 69 95 
3 95 69 96 
3 69 70 96 
3 96 70 97 
3 70 71 97 
3 97 71 98 
3 71 72 98 
3 98 72 99 
3 72 73 99 
3 99 73 100 
3 73 74 100 
3 100 74 101 
3 74 75 101 
3 101 75 102 
3 75 76 102 
3 102 76 103 
3 76 77 103 
3 103 77 104 
3 77 78 104 
3 104 78 105 
3 78 79 105 
3 105 79 106 
3 79 80 106 
3 106 80 107 
3 81 82 108 
3 108 82 109 
3 82 83 109 
3 109 83 110 
3 83 84 110 
3 110 84 111 
3 84 85 111 
3 111 85 112 
3 85 86 112 
3 112 86 113 
3 86 87 113 
3 113 87 114 
3 87 88 114 
3 114 88 115 
3 88 89 115 
3 115 89 116 
3 89 90 116 
3 116 90 117 
3 90 91 117 
3 117 91 118 
3 91 92 118 
3 118 92 119 
3 92 93 119 
3 119 93 120 
3 93 94 120 
3 120 94 121 
3 94 95 121 
3 121 95 122 
3 95 96 122 
3 122 96 123 
3 96 97 123 
3 123 97 124 
3 97 98 124 
3 124 98 125 
3 98 99 125 
3 125 99 126 
3 99 100 126 
3 126 100 127 
3 100 101 127 
3 127 101 128 
3 101 102 128 
3 128 102 129 
3 102 103 129 
3 129 103 130 
3 103 104 130 
3 130 104 131 
3 104 105 131 
3 131 105 132 
3 105 106 132 
3 132 106 133 
3 106 107 133 
3 133 107 134 
3 108 109 135 
3 135 109 136 
3 109 110 136 
3 136 110 137 
3 110 111 137 
3 137 111 138 
3 111 112 138 
3 138 112 139 
3 112 113 139 
3 139 113 140 
3 113 114 140 
3 140 114 141 
3 114 115 141 
3 141 115 142 
3 115 116 142 
3 142 116 143 
3 116 117 143 
3 143 117 144 
3 117 118 144 
3 144 118 145 
3 118 119 145 
3 145 119 146 
3 119 120 146 
3 146 120 147 
3 120 121 147 
3 147 121 148 
3 121 122 148 
3 148 122 149 
3 122 123 149 
3 149 123 150 
3 123 124 150 
3 150 124 151 
3 124 125 151 
3 151 125 152 
3 125 126 152 
3 152 126 153 
3 126 127 153 
3 153 127 154 
3 127 128 154 
3 154 128 155 
3 128 129 155 
3 155 129 156 
3 129 130 156 
3 156 130 157 
3 130 131 157 
3 157 131 158 
3 131 132 158 
3 158 132 159 
3 132 133 159 
3 159 133 160 
3 133 134 160 
3 160 134 161 
3 135 136 162 
3 162 136 163 
3 136 137 163 
3 163 137 164 
3 137 138 164 
3 164 138 165 
3 138 139 165 
3 165 139 166 
3 139 140 166 
3 166 140 167 
3 140 141 167 
3 167 141 168 
3 141 142 168 
3 168 142 169 
3 142 143 169 
3 169 143 170 
3 143 144 170 
3 170 144 171 
3 144 145 171 
3 171 145 172 
3 145 146 172 
3 172 146 173 
3 146 147 173 
3 173 147 174 
3 147 148 174 
3 174 148 175 
3 148 149 175 
3 175 149 176 
3 149 150 176 
3 176 150 177 
3 150 151 177 
3 177 151 178 
3 151 152 178 
3 178 152 179 
3 152 153 179 
3 179 153 180 
3 153 154 180 
3 180 154 181 
3 154 155 181 
3 181 155 182 
3 155 156 182 
3 182 156 183 
3 156 157 183 
3 183 157 184 
3 157 158 184 
3 184 158 185 
3 158 159 185 
3 185 159 186 
3 159 160 186 
3 186 160 187 
3 160 161 187 
3 187 161 188 
3 162 163 189 
3 189 163 190 
3 163 164 190 
3 190 164 191 
3 164 165 191 
3 191 165 192 
3 165 166 192 
3 192 166 193 
3 166 167 193 
3 193 167 194 
3 167 168 194 
3 194 168 195 
3 168 169 195 
3 195 169 196 
3 169 170 196 
3 196 170 197 
3 170 171 197 
3 197 171 198 
3 171 172 198 
3 198 172 199 
3 172 173 199 
3 199 173 200 
3 173 174 200 
3 200 174 201 
3 174 175 201 
3 201 175 202 
3 175 176 202 
3 202 176 203 
3 176 177 203 
3 203 177 204 
3 177 178 204 
3 204 178 205 
3 178 179 205 
3 205 179 206 
3 179 180 206 
3 206 180 207 
3 180 181 207 
3 207 181 208 
3 181 182 208 
3 208 182 209 
3 182 183 209 
3 209 183 210 
3 183 184 210 
3 210 184 211 
3 184 185 211 
3 211 185 212 
3 185 186 212 
3 212 186 213 
3 186 187 213 
3 213 187 214 
3 187 188 214 
3 214 188 215 
3 189 190 216 
3 216 190 217 
3 190 191 217 
3 217 191 218 
3 191 192 218 
3 218 192 219 
3 192 193 219 
3 219 193 220 
3 193 194 220 
3 220 194 221 
3 194 195 221 
3 221 195 222 
3 195 196 222 
3 222 196 223 
3 196 197 223 
3 223 197 224 
3 197 198 224 
3 224 198 225 
3 198 199 225 
3 225 199 226 
3 199 200 226 
3 226 200 227 
3 200 201 227 
3 227 201 228 
3 201 202 228 
3 228 202 229 
3 202 203 229 
3 229 203 230 
3 203 204 230 
3 230 204 231 
3 204 205 231 
3 231 205 232 
3 205 206 232 
3 232 206 233 
3 206 207 233 
3 233 207 234 
3 207 208 234 
3 234 208 235 
3 208 209 235 
3 235 209 236 
3 209 210 236 
3 236 210 237 
3 210 211 237 
3 237 211 238 
3 211 212 238 
3 238 212 239 
3 212 213 239 
3 239 213 240 
3 213 214 240 
3 240 214 241 
3 214 215 241 
3 241 215 242 
3 216 217 243 
3 243 217 244 
3 217 218 244 
3 244 218 245 
3 218 219 245 
3 245 219 246 
3 219 220 246 
3 246 220 247 
3 220 221 247 
3 247 221 248 
3 221 222 248 
3 248 222 249 
3 222 223 249 
3 249 223 250 
3 223 224 250 
3 250 224 251 
3 224 225 251 
3 251 225 252 
3 225 226 252 
3 252 226 253 
3 226 227 253 
3 253 227 254 
3 227 228 254 
3 254 228 255 
3 228 229 255 
3 255 229 256 
3 229 230 256 
3 256 230 257 
3 230 231 257 
3 257 231 258 
3 231 232 258 
3 258 232 259 
3 232 233 259 
3 259 233 260 
3 233 234 260 
3 260 234 261 
3 234 235 261 
3 261 235 262 
3 235 236 262 
3 262 236 263 
3 236 237 263 
3 263 237 264 
3 237 238 264 
3 264 238 265 
3 238 239 265 
3 265 239 266 
3 239 240 266 
3 266 240 267 
3 240 241 267 
3 267 241 268 
3 241 242 268 
3 268 242 269 
3 243 244 270 
3 270 244 271 
3 244 245 271 
3 271 245 272 
3 245 246 272 
3 272 246 273 
3 246 247 273 
3 273 247 274 
3 247 248 274 
3 274 248 275 
3 248 249 275 
3 275 249 276 
3 249 250 276 
3 276 250 277 
3 250 251 277 
3 277 251 278 
3 251 252 278 
3 278 252 279 
3 252 253 279 
3 279 253 280 
3 253 254 280 
3 280 254 281 
3 254 255 281 
3 281 255 282 
3 255 256 282 
3 282 256 283 
3 256 257 283 
3 283 257 284 
3 257 258 284 
3 284 258 285 
3 258 259 285 
3 285 259 286 
3 259 260 286 
3 286 260 287 
3 260 261 287 
3 287 261 288 
3 261 262 288 
3 288 262 289 
3 262 263 289 
3 289 263 290 
3 263 264 290 
3 290 264 291 
3 264 265 291 
3 291 265 292 
3 265 266 292 
3 292 266 293 
3 266 267 293 
3 293 267 294 
3 267 268 294 
3 294 268 295 
3 268 269 295 
3 295 269 296 
3 270 271 297 
3 297 271 298 
3 271 272 298 
3 298 272 299 
3 272 273 299 
3 299 273 300 
3 273 274 300 
3 300 274 301 
3 274 275 301 
3 301 275 302 
3 275 276 302 
3 302 276 303 
3 276 277 303 
3 303 277 304 
3 277 278 304 
3 304 278 305 
3 278 279 305 
3 305 279 306 
3 279 280 306 
3 306 280 307 
3 280 281 307 
3 307 281 308 
3 281 282 308 
3 308 282 309 
3 282 283 309 
3 309 283 310 
3 283 284 310 
3 310 284 311 
3 284 285 311 
3 311 285 312 
3 285 286 312 
3 312 286 313 
3 286 287 313 
3 313 287 314 
3 287 288 314 
3 314 288 315 
3 288 289 315 
3 315 289 316 
3 289 290 316 
3 316 290 317 
3 290 291 317 
3 317 291 318 
3 291 292 318 
3 318 292 319 
3 292 293 319 
3 319 293 320 
3 293 294 320 
3 320 294 321 
3 294 295 321 
3 321 295 322 
3 295 296 322 
3 322 296 323 
3 297 298 324 
3 324 298 325 
3 298 299 325 
3 325 299 326 
3 299 300 326 
3 326 300 327 
3 300 301 327 
3 327 301 328 
3 301 302 328 
3 328 302 329 
3 302 303 329 
3 329 303 330 
3 303 304 330 
3 330 304 331 
3 304 305 331 
3 331 305 332 
3 305 306 332 
3 332 306 333 
3 306 307 333 
3 333 307 334 
3 307 308 334 
3 334 308 335 
3 308 309 335 
3 335 309 336 
3 309 310 336 
3 336 310 337 
3 310 311 337 
3 337 311 338 
3 311 312 338 
3 338 312 339 
3 312 313 339 
3 339 313 340 
3 313 314 340 
3 340 314 341 
3 314 315 341 
3 341 315 342 
3 315 316 342 
3 342 316 343 
3 316 317 343 
3 343 317 344 
3 317 318 344 
3 344 318 345 
3 318 319 345 
3 345 319 346 
3 319 320 346 
3 346 320 347 
3 320 321 347 
3 347 321 348 
3 321 322 348 
3 348 322 349 
3 322 323 349 
3 349 323 350 
3 324 325 351 
3 351 325 352 
3 325 326 352 
3 352 326 353 
3 326 327 353 
3 353 327 354 
3 327 328 354 
3 354 328 355 
3 328 329 355 
3 355 329 356 
3 329 330 356 
3 356 330 357 
3 330 331 357 
3 357 331 358 
3 331 332 358 
3 358 332 359 
3 332 333 359 
3 359 333 360 
3 333 334 360 
3 360 334 361 
3 334 335 361 
3 361 335 362 
3 335 336 362 
3 362 336 363 
3 336 337 363 
3 363 337 364 
3 337 338 364 
3 364 338 365 
3 338 339 365 
3 365 339 366 
3 339 340 366 
3 366 340 367 
3 340 341 367 
3 367 341 368 
3 341 342 368 
3 368 342 369 
3 342 343 369 
3 369 343 370 
3 343 344 370 
3 370 344 371 
3 344 345 371 
3 371 345 372 
3 345 346 372 
3 372 346 373 
3 346 347 373 
3 373 347 374 
3 347 348 374 
3 374 348 375 
3 348 349 375 
3 375 349 376 
3 349 350 376 
3 376 350 377 
3 351 352 378 
3 378 352 379 
3 352 353 379 
3 379 353 380 
3 353 354 380 
3 380 354 381 
3 354 355 381 
3 381 355 382 
3 355 356 382 
3 382 356 383 
3 356 357 383 
3 383 357 384 
3 357 358 384 
3 384 358 385 
3 358 359 385 
3 385 359 386 
3 359 360 386 
3 386 360 387 
3 360 361 387 
3 387 361 388 
3 361 362 388 
3 388 362 389 
3 362 363 389 
3 389 363 390 
3 363 364 390 
3 390 364 391 
3 364 365 391 
3 391 365 392 
3 365 366 392 
3 392 366 393 
3 366 367 393 
3 393 367 394 
3 367 368 394 
3 394 368 395 
3 368 369 395 
3 395 369 396 
3 369 370 396 
3 396 370 397 
3 370 371 397 
3 397 371 398 
3 371 372 398 
3 398 372 399 
3 372 373 399 
3 399 373 400 
3 373 374 400 
3 400 374 401 
3 374 375 401 
3 401 375 402 
3 375 376 402 
3 402 376 403 
3 376 377 403 
3 403 377 404 
3 378 379 405 
3 405 379 406 
3 379 380 406 
3 406 380 407 
3 380 381 407 
3 407 381 408 
3 381 382 408 
3 408 382 409 
3 382 383 409 
3 409 383 410 
3 383 384 410 
3 410 384 411 
3 384 385 411 
3 411 385 412 
3 385 386 412 
3 412 386 413 
3 386 387 413 
3 413 387 414 
3 387 388 414 
3 414 388 415 
3 388 389 415 
3 415 389 416 
3 389 390 416 
3 416 390 417 
3 390 391 417 
3 417 391 418 
3 391 392 418 
3 418 392 419 
3 392 393 419 
3 419 393 420 
3 393 394 420 
3 420 394 421 
3 394 395 421 
3 421 395 422 
3 395 396 422 
3 422 396 423 
3 396 397 423 
3 423 397 424 
3 397 398 424 
3 424 398 425 
3 398 399 425 
3 425 399 426 
3 399 400 426 
3 426 400 427 
3 400 401 427 
3 427 401 428 
3 401 402 428 
3 428 402 429 
3 402 403 429 
3 429 403 430 
3 403 404 430 
3 430 404 431 
3 405 406 432 
3 432 406 433 
3 406 407 433 
3 433 407 434 
3 407 408 434 
3 434 408 435 
3 408 409 435 
3 435 409 436 
3 409 410 436 
3 436 410 437 
3 410 411 437 
3 437 411 438 
3 411 412 438 
3 438 412 439 
3 412 413 439 
3 439 413 440 
3 413 414 440 
3 440 414 441 
3 414 415 441 
3 441 415 442 
3 415 416 442 
3 442 416 443 
3 416 417 443 
3 443 417 444 
3 417 418 444 
3 444 418 445 
3 418 419 445 
3 445 419 446 
3 419 420 446 
3 446 420 447 
3 420 421 447 
3 447 421 448 
3 421 422 448 
3 448 422 449 
3 422 423 449 
3 449 423 450 
3 423 424 450 
3 450 424 451 
3 424 425 451 
3 451 425 452 
3 425 426 452 
3 452 426 453 
3 426 427 453 
3 453 427 454 
3 427 428 454 
3 454 428 455 
3 428 429 455 
3 455 429 456 
3 429 430 456 
3 456 430 457 
3 430 431 457 
3 457 431 458 
3 432 433 459 
3 459 433 460 
3 433 434 460 
3 460 434 461 
3 434 435 461 
3 461 435 462 
3 435 436 462 
3 462 436 463 
3 436 437 463 
3 463 437 464 
3 437 438 464 
3 464 438 465 
3 438 439 465 
3 465 439 466 
3 439 440 466 
3 466 440 467 
3 440 441 467 
3 467 441 468 
3 441 442 468 
3 468 442 469 
3 442 443 469 
3 469 443 470 
3 443 444 470 
3 470 444 471 
3 444 445 471 
3 471 445 472 
3 445 446 472 
3 472 446 473 
3 446 447 473 
3 473 447 474 
3 447 448 474 
3 474 448 475 
3 448 449 475 
3 475 449 476 
3 449 450 476 
3 476 450 477 
3 450 451 477 
3 477 451 478 
3 451 452 478 
3 478 452 479 
3 452 453 479 
3 479 453 480 
3 453 454 480 
3 480 454 481 
3 454 455 481 
3 481 455 482 
3 455 456 482 
3 482 456 483 
3 456 457 483 
3 483 457 484 
3 457 458 484 
3 484 458 485 
3 460 0 459 
3 0 460 1 
3 460 461 1 
3 1 461 4 
3 461 462 4 
3 4 462 6 
3 462 463 6 
3 6 463 8 
3 463 464 8 
3 8 464 10 
3 464 465 10 
3 10 465 12 
3 465 466 12 
3 12 466 14 
3 466 467 14 
3 14 467 16 
3 467 468 16 
3 16 468 18 
3 468 469 18 
3 18 469 20 
3 469 470 20 
3 20 470 22 
3 470 471 22 
3 22 471 24 
3 471 472 24 
3 24 472 26 
3 472 473 26 
3 26 473 28 
3 473 474 28 
3 28 474 30 
3 474 475 30 
3 30 475 32 
3 475 476 32 
3 32 476 34 
3 476 477 34 
3 34 477 36 
3 477 478 36 
3 36 478 38 
3 478 479 38 
3 38 479 40 
3 479 480 40 
3 40 480 42 
3 480 481 42 
3 42 481 44 
3 481 482 44 
3 44 482 46 
3 482 483 46 
3 46 483 48 
3 483 484 48 
3 48 484 50 
3 484 485 50 
3 50 485 52 
3 216 243 270 
3 189 216 270 
3 189 270 297 
3 162 189 297 
3 162 297 324 
3 135 162 324 
3 108 135 324 
3 108 324 351 
3 81 108 351 
3 54 81 351 
3 2 54 351 
3 0 2 351 
3 0 351 378 
3 0 378 405 
3 0 405 432 
3 459 0 432 
3 269 242 215 
3 296 269 215 
3 296 215 188 
3 323 296 188 
3 350 323 188 
3 350 188 161 
3 377 350 161 
3 377 161 134 
3 404 377 134 
3 80 53 52 
3 80 52 485 
3 80 485 458 
3 80 458 431 
3 431 404 134 
3 80 431 134 
3 107 80 134 
