ply
format ascii 1.0
comment VCGLIB generated
element vertex 9
property float x
property float y
property float z
element face 30
property list uchar int vertex_indices
end_header
2 0 0
1 1.732050808 0
-1 1.732050808 0
-2 0 0
-1 -1.732050808 0
1 -1.732050808 0
0 0 0
0 0 1
0 0 -1
3 0 1 6
3 1 2 6
3 2 3 6
3 3 4 6
3 4 5 6
3 5 0 6
3 6 0 7
3 6 1 7
3 6 2 7
3 6 3 7
3 6 4 7
3 6 5 7
3 0 6 8
3 1 6 8
3 2 6 8
3 3 6 8
3 4 6 8
3 5 6 8
3 0 1 7
3 1 2 7
3 2 3 7
3 3 4 7
3 4 5 7
3 5 0 7
3 1 0 8
3 2 1 8
3 3 2 8
3 4 3 8
3 5 4 8
3 0 5 8
