# Blender v2.78 (sub 0) OBJ File: '.'
# www.blender.org
mtllib boxwithhole2.mtl
o Cube.001
v 5.740299 -8.671514 -10.152381
v 7.733709 -8.671514 9.781713
v 5.740300 -8.671515 9.781713
v 7.973638 7.973638 8.970343
v 5.740300 7.275763 8.970344
v -7.973638 7.973638 8.970343
v -7.973638 4.485171 9.967052
v -7.973638 -4.485172 9.967048
v -7.973638 7.973638 10.963753
v 1.495057 3.986819 10.963753
v 7.973638 7.973638 10.963753
v 7.973639 -4.485172 9.967048
v 7.973640 4.485171 9.967042
v -7.216862 -7.973639 9.781713
v 5.740300 -7.973641 9.781713
v -7.973638 -7.973639 10.963753
v 7.973638 -7.973638 -10.963753
v -7.973640 7.973638 -10.963753
v 7.973638 7.973639 -10.963753
v -7.973640 7.275763 -10.152381
v -7.973638 7.973638 -8.970343
v -7.216863 7.275763 -8.970343
v 5.740299 7.275763 -8.970343
v 7.973638 4.485172 -9.967050
v 7.973638 -4.485171 -9.967049
v -9.210274 7.275763 -10.152381
v -9.210272 -4.485171 -9.967044
v -9.210274 4.485172 -9.967047
v -9.210273 5.481876 9.781713
v -7.973640 7.275762 9.781715
v -9.210274 7.275762 9.781713
v -7.973638 7.275762 8.970343
v -7.973638 7.275763 -8.970343
v -9.210272 -8.671514 -10.152381
v -7.216862 -8.671515 9.781713
v -9.210272 -8.671515 9.781713
v -9.967047 -4.485172 9.967048
v -9.210273 -4.485172 9.781713
v -9.967052 -4.485171 -9.967044
v -9.967042 -5.481877 9.967052
v -9.210273 -5.481877 9.781713
v -7.973638 -5.481877 9.967052
v 9.967053 -5.481876 9.967041
v 9.967046 -4.485170 -9.967049
v 9.967048 -4.485171 9.967048
v 9.967044 -5.481875 -9.967052
v -9.967048 -5.481876 -9.967047
v -9.967047 5.481875 9.967048
v -9.967052 5.481876 -9.967044
v -9.967042 4.485170 9.967052
v -9.210273 4.485171 9.781713
v -7.973638 5.481876 9.967048
v 9.967053 4.485171 9.967041
v 9.967046 5.481877 -9.967049
v 9.967048 5.481876 9.967048
v 9.967044 4.485172 -9.967052
v 7.973637 5.481877 -9.967049
v -9.967048 4.485171 -9.967047
v -9.210272 5.481877 -9.967044
v -9.210274 -5.481876 -9.967047
v -7.973638 -7.973638 -10.152381
v -7.216863 -8.671514 -10.152381
v -7.973638 -7.973638 -10.963753
v 5.740299 -7.973638 -10.152381
v 7.733708 4.485172 -8.970343
v 7.973638 -4.485171 -8.970343
v 7.973638 4.485172 -8.970343
v 7.733708 -5.481875 -8.970343
v 7.973638 -7.973638 -8.970343
v 7.973638 -5.481875 -8.970343
v -7.216863 -7.973638 -8.970343
v -7.216864 -7.973639 8.970343
v -7.216866 4.485171 -8.970343
v -7.216863 -4.485172 8.970343
v -7.216863 -4.485170 -8.970343
v -7.973637 -7.973639 9.781713
v 7.973639 5.481876 9.967048
v 7.973638 -5.481877 8.970343
v -7.973638 4.485171 9.781713
v -7.973639 -4.485172 9.781715
v 5.740300 5.481876 8.970343
v -7.216863 5.481876 -8.970343
v -7.216863 5.481876 8.970343
v -7.216863 -5.481877 8.970343
v 5.740300 -7.973639 8.970343
v 7.733710 -4.485172 8.970343
v 7.973638 4.485171 8.970343
v 7.973638 -4.485172 8.970343
v 7.973640 -5.481877 9.967042
v 5.740300 -4.485171 8.970343
v -7.216863 7.275762 8.970343
v 7.733709 -7.973640 9.781713
v 7.733709 5.481876 8.970343
v 7.733708 7.275763 -8.970343
v 7.733709 7.275762 8.970344
v 7.733708 -7.973638 -8.970343
v 7.733709 -7.973638 8.970343
v 7.733709 -4.485171 -8.970343
v 7.733709 4.485171 8.970343
v -1.495057 -3.986820 8.970343
v 1.495057 -3.986820 8.970343
v 5.740298 4.485171 8.970343
v 5.740298 4.485172 -8.970343
v 5.740299 -7.973638 -8.970343
v -7.216865 -5.481876 -8.970343
v 7.973638 5.481877 -8.970343
v 5.740298 -4.485170 -8.970342
v 7.733708 -7.973638 -10.152381
v 5.740299 -5.481875 -8.970343
v 7.733709 -5.481877 8.970343
v 7.973638 -7.973638 8.970343
v 5.740298 5.481877 -8.970342
v -1.495057 3.986819 8.970343
v -7.216863 4.485171 8.970343
v -1.495057 3.986819 10.963753
v -1.495057 1.495058 10.963753
v 1.495057 3.986819 8.970343
v 1.495058 1.546158 8.970343
v -1.495057 -3.986820 10.963753
v 1.495057 -3.986820 10.963753
v 7.733708 -8.671513 -10.152381
v 7.973638 5.481876 8.970343
v -7.973639 5.481876 9.781715
v -7.973639 -5.481877 9.781715
v 7.973640 -7.973638 10.963753
v 7.973638 7.973639 -8.970343
v 7.733708 5.481877 -8.970343
v 7.973638 -5.481876 -9.967050
v -7.216863 -7.973638 -10.152381
v 5.740300 -5.481876 8.970343
vn 0.0000 -1.0000 -0.0000
vn 0.0000 -0.0000 -1.0000
vn -1.0000 -0.0000 0.0000
vn -0.0000 0.0000 1.0000
vn 1.0000 0.0000 -0.0000
vn 0.0000 1.0000 -0.0000
usemtl Material.001
s 1
f 1//1 2//1 3//1
f 4//2 5//2 6//2
f 7//3 8//3 9//3
f 9//4 10//4 11//4
f 11//5 12//5 13//5
f 9//6 4//6 6//6
f 14//1 15//1 16//1
f 17//2 18//2 19//2
f 18//3 20//3 21//3
f 22//4 23//4 21//4
f 24//5 25//5 17//5
f 21//6 19//6 18//6
f 26//3 27//3 28//3
f 29//4 30//4 31//4
f 31//6 32//6 33//6
f 34//1 35//1 36//1
f 37//6 38//6 39//6
f 40//1 41//1 42//1
f 40//4 8//4 37//4
f 43//5 44//5 45//5
f 46//2 25//2 44//2
f 37//3 47//3 40//3
f 48//6 29//6 49//6
f 50//1 51//1 7//1
f 50//4 52//4 48//4
f 53//5 54//5 55//5
f 56//2 57//2 54//2
f 48//3 58//3 50//3
f 28//2 49//2 59//2
f 60//2 39//2 27//2
f 61//2 62//2 34//2
f 63//1 17//1 64//1
f 65//4 66//4 67//4
f 68//4 69//4 70//4
f 71//5 72//5 35//5
f 73//5 74//5 75//5
f 76//4 41//4 36//4
f 77//4 53//4 55//4
f 78//1 70//1 43//1
f 79//4 38//4 80//4
f 81//6 82//6 83//6
f 84//2 85//2 72//2
f 86//2 87//2 88//2
f 89//4 45//4 12//4
f 90//6 75//6 74//6
f 83//5 22//5 91//5
f 87//1 67//1 53//1
f 15//4 2//4 92//4
f 93//5 94//5 95//5
f 96//5 97//5 2//5
f 98//5 99//5 86//5
f 90//2 100//2 101//2
f 102//1 73//1 103//1
f 104//4 105//4 71//4
f 55//6 54//6 106//6
f 103//4 75//4 107//4
f 108//2 1//2 64//2
f 109//1 84//1 105//1
f 110//2 111//2 97//2
f 45//6 44//6 66//6
f 112//3 5//3 23//3
f 85//3 104//3 3//3
f 107//3 102//3 103//3
f 23//6 95//6 94//6
f 113//2 114//2 102//2
f 115//5 116//5 113//5
f 116//4 9//4 16//4
f 10//1 113//1 117//1
f 117//3 118//3 10//3
f 101//6 119//6 120//6
f 1//1 121//1 2//1
f 4//2 122//2 95//2
f 122//2 93//2 95//2
f 32//2 6//2 91//2
f 81//2 83//2 91//2
f 91//2 6//2 5//2
f 4//2 95//2 5//2
f 5//2 81//2 91//2
f 9//3 6//3 30//3
f 30//3 123//3 52//3
f 6//3 32//3 30//3
f 124//3 76//3 42//3
f 42//3 76//3 16//3
f 9//3 30//3 52//3
f 7//3 79//3 80//3
f 9//3 52//3 7//3
f 42//3 16//3 8//3
f 7//3 80//3 8//3
f 8//3 16//3 9//3
f 9//4 116//4 115//4
f 10//4 120//4 125//4
f 9//4 115//4 10//4
f 10//4 125//4 11//4
f 125//5 111//5 89//5
f 111//5 78//5 89//5
f 122//5 4//5 77//5
f 77//5 4//5 11//5
f 11//5 125//5 12//5
f 12//5 88//5 87//5
f 125//5 89//5 12//5
f 13//5 77//5 11//5
f 12//5 87//5 13//5
f 9//6 11//6 4//6
f 125//1 16//1 15//1
f 14//1 72//1 85//1
f 16//1 76//1 14//1
f 97//1 111//1 92//1
f 92//1 111//1 125//1
f 14//1 85//1 15//1
f 15//1 92//1 125//1
f 17//2 63//2 18//2
f 18//3 63//3 20//3
f 20//3 33//3 21//3
f 63//3 61//3 20//3
f 126//4 21//4 23//4
f 22//4 82//4 112//4
f 21//4 33//4 22//4
f 127//4 106//4 94//4
f 94//4 106//4 126//4
f 22//4 112//4 23//4
f 23//4 94//4 126//4
f 19//5 126//5 57//5
f 126//5 106//5 57//5
f 70//5 69//5 128//5
f 128//5 69//5 17//5
f 17//5 19//5 24//5
f 24//5 67//5 66//5
f 19//5 57//5 24//5
f 25//5 128//5 17//5
f 24//5 66//5 25//5
f 21//6 126//6 19//6
f 34//3 36//3 60//3
f 36//3 41//3 60//3
f 29//3 31//3 59//3
f 59//3 31//3 26//3
f 26//3 34//3 27//3
f 27//3 38//3 51//3
f 34//3 60//3 27//3
f 28//3 59//3 26//3
f 27//3 51//3 28//3
f 29//4 123//4 30//4
f 20//6 26//6 33//6
f 31//6 30//6 32//6
f 32//6 91//6 22//6
f 33//6 26//6 31//6
f 32//6 22//6 33//6
f 34//1 62//1 35//1
f 37//6 8//6 38//6
f 38//6 27//6 39//6
f 8//6 80//6 38//6
f 40//1 47//1 41//1
f 41//1 124//1 42//1
f 47//1 60//1 41//1
f 40//4 42//4 8//4
f 43//5 46//5 44//5
f 46//2 128//2 25//2
f 37//3 39//3 47//3
f 48//6 52//6 29//6
f 29//6 59//6 49//6
f 52//6 123//6 29//6
f 50//1 58//1 51//1
f 51//1 79//1 7//1
f 58//1 28//1 51//1
f 50//4 7//4 52//4
f 53//5 56//5 54//5
f 56//2 24//2 57//2
f 48//3 49//3 58//3
f 28//2 58//2 49//2
f 60//2 47//2 39//2
f 26//2 20//2 61//2
f 61//2 129//2 62//2
f 34//2 26//2 61//2
f 104//1 71//1 129//1
f 129//1 61//1 63//1
f 17//1 69//1 108//1
f 69//1 96//1 108//1
f 129//1 63//1 64//1
f 64//1 104//1 129//1
f 17//1 108//1 64//1
f 65//4 98//4 66//4
f 68//4 96//4 69//4
f 62//5 129//5 71//5
f 71//5 105//5 84//5
f 72//5 14//5 35//5
f 71//5 84//5 72//5
f 35//5 62//5 71//5
f 73//5 114//5 74//5
f 35//4 14//4 76//4
f 76//4 124//4 41//4
f 36//4 35//4 76//4
f 77//4 13//4 53//4
f 43//1 89//1 78//1
f 78//1 110//1 68//1
f 70//1 128//1 46//1
f 78//1 68//1 70//1
f 46//1 43//1 70//1
f 79//4 51//4 38//4
f 81//6 112//6 82//6
f 84//2 130//2 85//2
f 86//2 99//2 87//2
f 89//4 43//4 45//4
f 90//6 107//6 75//6
f 83//5 82//5 22//5
f 53//1 13//1 87//1
f 87//1 99//1 65//1
f 67//1 24//1 56//1
f 87//1 65//1 67//1
f 56//1 53//1 67//1
f 15//4 3//4 2//4
f 93//5 127//5 94//5
f 121//5 108//5 96//5
f 96//5 68//5 110//5
f 97//5 92//5 2//5
f 96//5 110//5 97//5
f 2//5 121//5 96//5
f 98//5 65//5 99//5
f 118//2 102//2 90//2
f 74//2 114//2 100//2
f 114//2 113//2 100//2
f 101//2 118//2 90//2
f 74//2 100//2 90//2
f 102//1 114//1 73//1
f 104//4 109//4 105//4
f 106//6 127//6 93//6
f 122//6 77//6 55//6
f 106//6 93//6 122//6
f 54//6 57//6 106//6
f 122//6 55//6 106//6
f 103//4 73//4 75//4
f 108//2 121//2 1//2
f 109//1 130//1 84//1
f 110//2 78//2 111//2
f 66//6 98//6 86//6
f 88//6 12//6 45//6
f 66//6 86//6 88//6
f 44//6 25//6 66//6
f 88//6 45//6 66//6
f 112//3 81//3 5//3
f 3//3 15//3 85//3
f 85//3 130//3 104//3
f 104//3 64//3 1//3
f 130//3 109//3 104//3
f 1//3 3//3 104//3
f 107//3 90//3 102//3
f 23//6 5//6 95//6
f 117//2 113//2 102//2
f 102//2 118//2 117//2
f 100//5 113//5 116//5
f 116//5 119//5 100//5
f 16//4 125//4 120//4
f 119//4 116//4 16//4
f 16//4 120//4 119//4
f 10//1 115//1 113//1
f 120//3 10//3 118//3
f 118//3 101//3 120//3
f 101//6 100//6 119//6
