# Blender v2.78 (sub 0) OBJ File: ''
# www.blender.org
o Cube.001
v 0.500000 -0.500000 -1.500000
v 0.500000 -0.500000 1.500000
v -0.500000 -0.500000 1.500000
v -0.500000 -0.500000 -1.500000
v 0.500000 0.500000 -1.5
v -0.500000 0.500000 -1.500000
v -0.500000 0.500000 1.500000
v 0.5 0.500000 1.50000
vn 0.0000 -0.5000 -0.0000
vn -0.0000 0.5000 0.0000
vn 0.5000 0.0000 0.0000
vn -0.0000 -0.0000 0.5000
vn -0.5000 -0.0000 0.0000
vn 0.0000 0.0000 -0.5000
s 1
f 2//1 4//1 1//1
f 5//2 7//2 8//2
f 5//3 2//3 1//3
f 8//4 3//4 2//4
f 7//5 4//5 3//5
f 1//6 6//6 5//6
f 2//1 3//1 4//1
f 5//2 6//2 7//2
f 5//3 8//3 2//3
f 8//4 7//4 3//4
f 7//5 6//5 4//5
f 1//6 4//6 6//6
