####
#
# OBJ File Generated by Meshlab
#
####
# Object deadend-3.obj
#
# Vertices: 96
# Faces: 188
#
####
vn -0.707107 -0.707107 0.000000
v 49.000000 41.000000 -1.000000 0.752941 0.752941 0.752941
vn -0.408248 -0.408248 0.816497
v 49.000000 41.000000 1.000000 0.752941 0.752941 0.752941
vn -1.000000 0.000000 0.000000
v 49.000000 43.000000 -1.000000 0.752941 0.752941 0.752941
vn -0.447214 0.000000 0.894427
v 49.000000 43.000000 1.000000 0.752941 0.752941 0.752941
vn -1.000000 0.000000 0.000000
v 49.000000 45.000000 -1.000000 0.752941 0.752941 0.752941
vn -0.447214 0.000000 0.894427
v 49.000000 45.000000 1.000000 0.752941 0.752941 0.752941
vn -0.707107 0.707107 0.000000
v 49.000000 47.000000 -1.000000 0.752941 0.752941 0.752941
vn -0.408248 0.408248 0.816497
v 49.000000 47.000000 1.000000 0.752941 0.752941 0.752941
vn 0.000000 -1.000000 0.000000
v 51.000000 41.000000 -1.000000 0.752941 0.752941 0.752941
vn 0.000000 -0.447214 0.894427
v 51.000000 41.000000 1.000000 0.752941 0.752941 0.752941
vn 0.707107 0.707107 0.000000
v 51.000000 43.000000 -1.000000 0.752941 0.752941 0.752941
vn 0.162221 0.162221 0.973329
v 51.000000 43.000000 1.000000 0.752941 0.752941 0.752941
vn 0.707107 -0.707107 0.000000
v 51.000000 45.000000 -1.000000 0.752941 0.752941 0.752941
vn 0.162221 -0.162221 0.973329
v 51.000000 45.000000 1.000000 0.752941 0.752941 0.752941
vn 0.000000 1.000000 0.000000
v 51.000000 47.000000 -1.000000 0.752941 0.752941 0.752941
vn 0.000000 0.447214 0.894427
v 51.000000 47.000000 1.000000 0.752941 0.752941 0.752941
vn 0.000000 -1.000000 0.000000
v 53.000000 41.000000 -1.000000 0.752941 0.752941 0.752941
vn 0.000000 -0.447214 0.894427
v 53.000000 41.000000 1.000000 0.752941 0.752941 0.752941
vn 0.000000 1.000000 0.000000
v 53.000000 43.000000 -1.000000 0.752941 0.752941 0.752941
vn 0.000000 0.447214 0.894427
v 53.000000 43.000000 1.000000 0.752941 0.752941 0.752941
vn 0.000000 -1.000000 0.000000
v 53.000000 45.000000 -1.000000 0.752941 0.752941 0.752941
vn 0.000000 -0.447214 0.894427
v 53.000000 45.000000 1.000000 0.752941 0.752941 0.752941
vn 0.000000 1.000000 0.000000
v 53.000000 47.000000 -1.000000 0.752941 0.752941 0.752941
vn 0.000000 0.447214 0.894427
v 53.000000 47.000000 1.000000 0.752941 0.752941 0.752941
vn 0.000000 -1.000000 0.000000
v 55.000000 41.000000 -1.000000 0.752941 0.752941 0.752941
vn 0.000000 -0.447214 0.894427
v 55.000000 41.000000 1.000000 0.752941 0.752941 0.752941
vn 0.000000 1.000000 0.000000
v 55.000000 43.000000 -1.000000 0.752941 0.752941 0.752941
vn 0.000000 0.447214 0.894427
v 55.000000 43.000000 1.000000 0.752941 0.752941 0.752941
vn 0.000000 -1.000000 0.000000
v 55.000000 45.000000 -1.000000 0.752941 0.752941 0.752941
vn 0.000000 -0.447214 0.894427
v 55.000000 45.000000 1.000000 0.752941 0.752941 0.752941
vn 0.000000 1.000000 0.000000
v 55.000000 47.000000 -1.000000 0.752941 0.752941 0.752941
vn 0.000000 0.447214 0.894427
v 55.000000 47.000000 1.000000 0.752941 0.752941 0.752941
vn -0.707107 -0.707107 0.000000
v 57.000000 33.000000 -1.000000 0.752941 0.752941 0.752941
vn -0.408248 -0.408248 0.816497
v 57.000000 33.000000 1.000000 0.752941 0.752941 0.752941
vn -1.000000 0.000000 0.000000
v 57.000000 35.000000 -1.000000 0.752941 0.752941 0.752941
vn -0.447214 0.000000 0.894427
v 57.000000 35.000000 1.000000 0.752941 0.752941 0.752941
vn -1.000000 0.000000 0.000000
v 57.000000 37.000000 -1.000000 0.752941 0.752941 0.752941
vn -0.447214 0.000000 0.894427
v 57.000000 37.000000 1.000000 0.752941 0.752941 0.752941
vn -1.000000 0.000000 0.000000
v 57.000000 39.000000 -1.000000 0.752941 0.752941 0.752941
vn -0.447214 0.000000 0.894427
v 57.000000 39.000000 1.000000 0.752941 0.752941 0.752941
vn -0.707107 -0.707107 0.000000
v 57.000000 41.000000 -1.000000 0.752941 0.752941 0.752941
vn -0.162221 -0.162221 0.973329
v 57.000000 41.000000 1.000000 0.752941 0.752941 0.752941
vn 0.000000 1.000000 0.000000
v 57.000000 43.000000 -1.000000 0.752941 0.752941 0.752941
vn 0.000000 0.447214 0.894427
v 57.000000 43.000000 1.000000 0.752941 0.752941 0.752941
vn 0.000000 -1.000000 0.000000
v 57.000000 45.000000 -1.000000 0.752941 0.752941 0.752941
vn 0.000000 -0.447214 0.894427
v 57.000000 45.000000 1.000000 0.752941 0.752941 0.752941
vn 0.000000 1.000000 0.000000
v 57.000000 47.000000 -1.000000 0.752941 0.752941 0.752941
vn 0.000000 0.447214 0.894427
v 57.000000 47.000000 1.000000 0.752941 0.752941 0.752941
vn 0.707107 -0.707107 0.000000
v 59.000000 33.000000 -1.000000 0.752941 0.752941 0.752941
vn 0.408248 -0.408248 0.816497
v 59.000000 33.000000 1.000000 0.752941 0.752941 0.752941
vn 1.000000 0.000000 0.000000
v 59.000000 35.000000 -1.000000 0.752941 0.752941 0.752941
vn 0.447214 0.000000 0.894427
v 59.000000 35.000000 1.000000 0.752941 0.752941 0.752941
vn 1.000000 0.000000 0.000000
v 59.000000 37.000000 -1.000000 0.752941 0.752941 0.752941
vn 0.447214 0.000000 0.894427
v 59.000000 37.000000 1.000000 0.752941 0.752941 0.752941
vn 1.000000 0.000000 0.000000
v 59.000000 39.000000 -1.000000 0.752941 0.752941 0.752941
vn 0.447214 0.000000 0.894427
v 59.000000 39.000000 1.000000 0.752941 0.752941 0.752941
vn 1.000000 0.000000 0.000000
v 59.000000 41.000000 -1.000000 0.752941 0.752941 0.752941
vn 0.447214 0.000000 0.894427
v 59.000000 41.000000 1.000000 0.752941 0.752941 0.752941
vn 0.707107 0.707107 0.000000
v 59.000000 43.000000 -1.000000 0.752941 0.752941 0.752941
vn 0.408248 0.408248 0.816497
v 59.000000 43.000000 1.000000 0.752941 0.752941 0.752941
vn 0.000000 -1.000000 0.000000
v 59.000000 45.000000 -1.000000 0.752941 0.752941 0.752941
vn 0.000000 -0.447214 0.894427
v 59.000000 45.000000 1.000000 0.752941 0.752941 0.752941
vn 0.000000 1.000000 0.000000
v 59.000000 47.000000 -1.000000 0.752941 0.752941 0.752941
vn 0.000000 0.447214 0.894427
v 59.000000 47.000000 1.000000 0.752941 0.752941 0.752941
vn -0.707107 -0.707107 0.000000
v 61.000000 33.000000 -1.000000 0.752941 0.752941 0.752941
vn -0.408248 -0.408248 0.816497
v 61.000000 33.000000 1.000000 0.752941 0.752941 0.752941
vn -1.000000 0.000000 0.000000
v 61.000000 35.000000 -1.000000 0.752941 0.752941 0.752941
vn -0.447214 0.000000 0.894427
v 61.000000 35.000000 1.000000 0.752941 0.752941 0.752941
vn -1.000000 0.000000 0.000000
v 61.000000 37.000000 -1.000000 0.752941 0.752941 0.752941
vn -0.447214 0.000000 0.894427
v 61.000000 37.000000 1.000000 0.752941 0.752941 0.752941
vn -1.000000 0.000000 0.000000
v 61.000000 39.000000 -1.000000 0.752941 0.752941 0.752941
vn -0.447214 0.000000 0.894427
v 61.000000 39.000000 1.000000 0.752941 0.752941 0.752941
vn -1.000000 0.000000 0.000000
v 61.000000 41.000000 -1.000000 0.752941 0.752941 0.752941
vn -0.447214 0.000000 0.894427
v 61.000000 41.000000 1.000000 0.752941 0.752941 0.752941
vn -1.000000 0.000000 0.000000
v 61.000000 43.000000 -1.000000 0.752941 0.752941 0.752941
vn -0.447214 0.000000 0.894427
v 61.000000 43.000000 1.000000 0.752941 0.752941 0.752941
vn -0.707107 -0.707107 0.000000
v 61.000000 45.000000 -1.000000 0.752941 0.752941 0.752941
vn -0.162221 -0.162221 0.973329
v 61.000000 45.000000 1.000000 0.752941 0.752941 0.752941
vn 0.000000 1.000000 0.000000
v 61.000000 47.000000 -1.000000 0.752941 0.752941 0.752941
vn 0.000000 0.447214 0.894427
v 61.000000 47.000000 1.000000 0.752941 0.752941 0.752941
vn 0.707107 -0.707107 0.000000
v 63.000000 33.000000 -1.000000 0.752941 0.752941 0.752941
vn 0.408248 -0.408248 0.816497
v 63.000000 33.000000 1.000000 0.752941 0.752941 0.752941
vn 1.000000 0.000000 0.000000
v 63.000000 35.000000 -1.000000 0.752941 0.752941 0.752941
vn 0.447214 0.000000 0.894427
v 63.000000 35.000000 1.000000 0.752941 0.752941 0.752941
vn 1.000000 0.000000 0.000000
v 63.000000 37.000000 -1.000000 0.752941 0.752941 0.752941
vn 0.447214 0.000000 0.894427
v 63.000000 37.000000 1.000000 0.752941 0.752941 0.752941
vn 1.000000 0.000000 0.000000
v 63.000000 39.000000 -1.000000 0.752941 0.752941 0.752941
vn 0.447214 0.000000 0.894427
v 63.000000 39.000000 1.000000 0.752941 0.752941 0.752941
vn 1.000000 0.000000 0.000000
v 63.000000 41.000000 -1.000000 0.752941 0.752941 0.752941
vn 0.447214 0.000000 0.894427
v 63.000000 41.000000 1.000000 0.752941 0.752941 0.752941
vn 1.000000 0.000000 0.000000
v 63.000000 43.000000 -1.000000 0.752941 0.752941 0.752941
vn 0.447214 0.000000 0.894427
v 63.000000 43.000000 1.000000 0.752941 0.752941 0.752941
vn 1.000000 0.000000 0.000000
v 63.000000 45.000000 -1.000000 0.752941 0.752941 0.752941
vn 0.447214 0.000000 0.894427
v 63.000000 45.000000 1.000000 0.752941 0.752941 0.752941
vn 0.707107 0.707107 0.000000
v 63.000000 47.000000 -1.000000 0.752941 0.752941 0.752941
vn 0.408248 0.408248 0.816497
v 63.000000 47.000000 1.000000 0.752941 0.752941 0.752941
# 96 vertices, 0 vertices normals

f 2//2 10//10 12//12
f 2//2 12//12 4//4
f 2//2 10//10 12//12
f 2//2 12//12 4//4
f 1//1 9//9 10//10
f 1//1 10//10 2//2
f 1//1 2//2 4//4
f 1//1 4//4 3//3
f 4//4 12//12 14//14
f 4//4 14//14 6//6
f 4//4 12//12 14//14
f 4//4 14//14 6//6
f 3//3 4//4 6//6
f 3//3 6//6 5//5
f 11//11 13//13 14//14
f 11//11 14//14 12//12
f 6//6 14//14 16//16
f 6//6 16//16 8//8
f 6//6 14//14 16//16
f 6//6 16//16 8//8
f 7//7 8//8 16//16
f 7//7 16//16 15//15
f 5//5 6//6 8//8
f 5//5 8//8 7//7
f 10//10 18//18 20//20
f 10//10 20//20 12//12
f 10//10 18//18 20//20
f 10//10 20//20 12//12
f 9//9 17//17 18//18
f 9//9 18//18 10//10
f 11//11 12//12 20//20
f 11//11 20//20 19//19
f 14//14 22//22 24//24
f 14//14 24//24 16//16
f 14//14 22//22 24//24
f 14//14 24//24 16//16
f 13//13 21//21 22//22
f 13//13 22//22 14//14
f 15//15 16//16 24//24
f 15//15 24//24 23//23
f 18//18 26//26 28//28
f 18//18 28//28 20//20
f 18//18 26//26 28//28
f 18//18 28//28 20//20
f 17//17 25//25 26//26
f 17//17 26//26 18//18
f 19//19 20//20 28//28
f 19//19 28//28 27//27
f 22//22 30//30 32//32
f 22//22 32//32 24//24
f 22//22 30//30 32//32
f 22//22 32//32 24//24
f 21//21 29//29 30//30
f 21//21 30//30 22//22
f 23//23 24//24 32//32
f 23//23 32//32 31//31
f 26//26 42//42 44//44
f 26//26 44//44 28//28
f 26//26 42//42 44//44
f 26//26 44//44 28//28
f 25//25 41//41 42//42
f 25//25 42//42 26//26
f 27//27 28//28 44//44
f 27//27 44//44 43//43
f 30//30 46//46 48//48
f 30//30 48//48 32//32
f 30//30 46//46 48//48
f 30//30 48//48 32//32
f 29//29 45//45 46//46
f 29//29 46//46 30//30
f 31//31 32//32 48//48
f 31//31 48//48 47//47
f 34//34 50//50 52//52
f 34//34 52//52 36//36
f 34//34 50//50 52//52
f 34//34 52//52 36//36
f 33//33 49//49 50//50
f 33//33 50//50 34//34
f 33//33 34//34 36//36
f 33//33 36//36 35//35
f 49//49 51//51 52//52
f 49//49 52//52 50//50
f 36//36 52//52 54//54
f 36//36 54//54 38//38
f 36//36 52//52 54//54
f 36//36 54//54 38//38
f 35//35 36//36 38//38
f 35//35 38//38 37//37
f 51//51 53//53 54//54
f 51//51 54//54 52//52
f 38//38 54//54 56//56
f 38//38 56//56 40//40
f 38//38 54//54 56//56
f 38//38 56//56 40//40
f 37//37 38//38 40//40
f 37//37 40//40 39//39
f 53//53 55//55 56//56
f 53//53 56//56 54//54
f 40//40 56//56 58//58
f 40//40 58//58 42//42
f 40//40 56//56 58//58
f 40//40 58//58 42//42
f 39//39 40//40 42//42
f 39//39 42//42 41//41
f 55//55 57//57 58//58
f 55//55 58//58 56//56
f 42//42 58//58 60//60
f 42//42 60//60 44//44
f 42//42 58//58 60//60
f 42//42 60//60 44//44
f 43//43 44//44 60//60
f 43//43 60//60 59//59
f 57//57 59//59 60//60
f 57//57 60//60 58//58
f 46//46 62//62 64//64
f 46//46 64//64 48//48
f 46//46 62//62 64//64
f 46//46 64//64 48//48
f 45//45 61//61 62//62
f 45//45 62//62 46//46
f 47//47 48//48 64//64
f 47//47 64//64 63//63
f 62//62 78//78 80//80
f 62//62 80//80 64//64
f 62//62 78//78 80//80
f 62//62 80//80 64//64
f 61//61 77//77 78//78
f 61//61 78//78 62//62
f 63//63 64//64 80//80
f 63//63 80//80 79//79
f 66//66 82//82 84//84
f 66//66 84//84 68//68
f 66//66 82//82 84//84
f 66//66 84//84 68//68
f 65//65 81//81 82//82
f 65//65 82//82 66//66
f 65//65 66//66 68//68
f 65//65 68//68 67//67
f 81//81 83//83 84//84
f 81//81 84//84 82//82
f 68//68 84//84 86//86
f 68//68 86//86 70//70
f 68//68 84//84 86//86
f 68//68 86//86 70//70
f 67//67 68//68 70//70
f 67//67 70//70 69//69
f 83//83 85//85 86//86
f 83//83 86//86 84//84
f 70//70 86//86 88//88
f 70//70 88//88 72//72
f 70//70 86//86 88//88
f 70//70 88//88 72//72
f 69//69 70//70 72//72
f 69//69 72//72 71//71
f 85//85 87//87 88//88
f 85//85 88//88 86//86
f 72//72 88//88 90//90
f 72//72 90//90 74//74
f 72//72 88//88 90//90
f 72//72 90//90 74//74
f 71//71 72//72 74//74
f 71//71 74//74 73//73
f 87//87 89//89 90//90
f 87//87 90//90 88//88
f 74//74 90//90 92//92
f 74//74 92//92 76//76
f 74//74 90//90 92//92
f 74//74 92//92 76//76
f 73//73 74//74 76//76
f 73//73 76//76 75//75
f 89//89 91//91 92//92
f 89//89 92//92 90//90
f 76//76 92//92 94//94
f 76//76 94//94 78//78
f 76//76 92//92 94//94
f 76//76 94//94 78//78
f 75//75 76//76 78//78
f 75//75 78//78 77//77
f 91//91 93//93 94//94
f 91//91 94//94 92//92
f 78//78 94//94 96//96
f 78//78 96//96 80//80
f 78//78 94//94 96//96
f 78//78 96//96 80//80
f 79//79 80//80 96//96
f 79//79 96//96 95//95
f 93//93 95//95 96//96
f 93//93 96//96 94//94
# 188 faces, 0 coords texture

# End of File
